<svg xmlns="http://www.w3.org/2000/svg" width="180" height="180"><path d="M78.5 36.047c-36.539 5.738-63.93 33.757-66.187 67.703l-.615 9.25 7.901.067 7.901.067-4 1.312c-6.591 2.163-18.121 8.266-17.254 9.133.182.182 2.789-.866 5.793-2.329 11.5-5.601 31.46-3.945 76.054 6.31 21.078 4.847 33.813 6.206 43.161 4.605 10.182-1.743 21.736-7.588 30.04-15.198 6.85-6.276 12.709-13.725 12.702-16.147-.002-.726-.979.255-2.171 2.18l-2.167 3.5-1.257-8.536c-4.276-29.033-24.053-50.786-54.084-59.489-9.99-2.895-25.952-3.977-35.817-2.428m-3 43.755C70.125 81.67 61 87.488 61 89.048c0 .58 10.942.952 28 .952 15.4 0 28-.374 28-.83 0-1.561-9.065-7.344-14.512-9.259-7.06-2.481-20.009-2.533-26.988-.109m54.947 38.697c.063 6.507.171 6.54 11.812 3.563 7.497-1.918 13.363-4.453 17.241-7.452 1.83-1.415.679-1.549-13.553-1.578L130.394 113l.053 5.499" fill="undefined" fill-rule="evenodd"/></svg>