<svg xmlns="http://www.w3.org/2000/svg" width="128" height="128"><path d="M11 61.376v60.375l21.568-8.074 21.568-8.075-5.318-2.754c-6.596-3.415-7.25-3.431-14.222-.348-3.109 1.375-6.315 2.5-7.125 2.5C26.2 105 26 99.325 26 63.167c0-23.009.231-42.065.514-42.347.282-.283 10.745 3.162 23.25 7.655L72.5 36.644l.5 27.279.5 27.279 5 1.898c2.75 1.044 5.119 1.899 5.264 1.899.145.001.145-14.245 0-31.656L83.5 31.685l-36-15.337C27.7 7.912 11.387 1.008 11.25 1.005c-.137-.003-.25 27.164-.25 60.371m83.678-48.374c-11.452 3.745-21.017 7.004-21.256 7.242-.238.239 2.607 1.644 6.323 3.123l6.755 2.69 6.997-2.028c3.848-1.116 7.336-2.029 7.75-2.029.414 0 .753 19.125.753 42.5s-.357 42.5-.793 42.5c-1.035 0-41.049-14.845-43.385-16.096-1.64-.877-1.812-3.186-2.056-27.585L55.5 36.69l-5.25-1.784L45 33.122v61.549l35.25 15.667c19.387 8.616 35.588 15.665 36 15.664.412-.001.75-27.002.75-60.002s-.338-59.957-.75-59.904c-.412.053-10.12 3.161-21.572 6.906" fill="undefined" fill-rule="evenodd"/></svg>