<svg xmlns="http://www.w3.org/2000/svg" width="180" height="180"><path d="M80.597 5.113C42.94 10.085 13.64 36.526 5.921 72.5c-1.657 7.722-1.657 27.278 0 35 8.45 39.383 43.628 67.714 84.079 67.714 40.451 0 75.629-28.331 84.079-67.714 1.657-7.722 1.657-27.278 0-35-5.855-27.289-25.284-50.512-51.289-61.306-12.726-5.282-29.707-7.73-42.193-6.081m-8.205 12.72c-33.72 8.589-56.485 37.57-56.461 71.878.009 13.078 1.968 21.446 7.791 33.289 3.945 8.026 6.076 10.897 13.724 18.5C52.821 156.783 68.731 163.416 90 163.409c13.137-.005 20.595-1.619 31.685-6.856 9.317-4.4 13.513-7.303 20.684-14.315 14.915-14.582 21.73-30.675 21.912-51.738.122-14.147-1.423-21.201-7.226-33-9.098-18.497-25.186-32.179-45.555-38.741-8.872-2.858-29.598-3.349-39.108-.926M98.503 56.64c-1.44 1.44-1.601 4.286-1.322 23.326l.319 21.687 2.791 4.213c1.534 2.318 3.897 4.718 5.25 5.334l2.459 1.121v17.84c0 13.605.297 17.839 1.25 17.838.688 0 4.063-1.331 7.5-2.957l6.25-2.957v-28.848l3.609-2.752c6.626-5.055 7.344-8.182 7.369-32.113.018-17.161-.248-21.351-1.414-22.319-1.059-.879-1.972-.905-3.476-.1-1.909 1.022-2.057 2.155-2.314 17.712-.24 14.558-.491 16.756-2.024 17.722-1.275.804-2.225.804-3.5 0-1.532-.965-1.784-3.16-2.024-17.642-.295-17.864-.926-20.047-5.138-17.792-1.909 1.022-2.057 2.155-2.314 17.712-.24 14.558-.491 16.756-2.024 17.722-1.275.804-2.225.804-3.5 0-1.53-.964-1.785-3.151-2.026-17.423-.311-18.458-1.373-21.672-5.721-17.324m-40.574 4.629c-10.138 6.832-15.106 28.683-9.153 40.26 1.122 2.184 3.432 5.293 5.132 6.908L57 111.374V142.125l6.478 2.938c3.563 1.615 6.938 2.937 7.5 2.937.659 0 1.022-6.589 1.022-18.565v-18.564l2.887-2.429c9.754-8.208 10.075-29.617.635-42.412-5.278-7.155-11.53-8.847-17.593-4.761" fill="undefined" fill-rule="evenodd"/></svg>