<svg xmlns="http://www.w3.org/2000/svg" width="158.901" height="108.525" viewBox="0 0 158.901 108.525">
  <g id="logo-sa-black" transform="translate(-352.521 -83.268)">
    <g id="Group_193" data-name="Group 193">
      <path id="Path_417" data-name="Path 417" d="M361.989,158.662c-.576-.265-1.6-.645-3.113-1.155a3.244,3.244,0,0,1-1.51-.95,1.951,1.951,0,0,1-.33-1.141,2.318,2.318,0,0,1,.738-1.736,2.787,2.787,0,0,1,2.053-.726,3.508,3.508,0,0,1,1.417.273,3.47,3.47,0,0,1,1.112.785c.3.308.468.49.519.548a.477.477,0,0,0,.07.072.471.471,0,0,0,.383.107l.119-.019a.474.474,0,0,0,.367-.637l-.7-1.831a.475.475,0,0,0-.361-.3,7.414,7.414,0,0,0-1.025-.237q-3.3-.652-5.089,1.112a4.325,4.325,0,0,0-1.311,3.192,4.412,4.412,0,0,0,.511,2.032,3.863,3.863,0,0,0,1.3,1.514,12.476,12.476,0,0,0,2.468,1.083,11.11,11.11,0,0,1,2.19.931,2.721,2.721,0,0,1,.807.795,1.9,1.9,0,0,1,.265,1.035,2.31,2.31,0,0,1-.816,1.78,3.652,3.652,0,0,1-2.523.762,4.181,4.181,0,0,1-2.727-.722,3.383,3.383,0,0,1-.83-2.6.474.474,0,0,0-.474-.469h-.15a.474.474,0,0,0-.474.474v4.26a.474.474,0,0,0,.474.474h3.913c.225,0,.659-.037,1.327-.112a5.14,5.14,0,0,0,1.565-.367,3.915,3.915,0,0,0,1-.711,5.043,5.043,0,0,0,.819-1.01,4.3,4.3,0,0,0,.5-1.174,5.081,5.081,0,0,0,.154-1.257,3.983,3.983,0,0,0-.884-2.652A5.234,5.234,0,0,0,361.989,158.662Z" fill="#231f20"/>
      <path id="Path_418" data-name="Path 418" d="M395.379,151.757h-3.862a.474.474,0,0,0-.474.474v.149a.474.474,0,0,0,.474.474h.139a.638.638,0,0,1,.352.07,3.281,3.281,0,0,1,.12,1.248v9.746a4.893,4.893,0,0,1-3.742,1.845,3.4,3.4,0,0,1-2.375-.956,4.294,4.294,0,0,1-1.028-3.259v-8.053a1.391,1.391,0,0,1,.069-.545,1.072,1.072,0,0,1,.581-.1.474.474,0,0,0,.474-.474v-.149a.474.474,0,0,0-.474-.474h-3.892a.474.474,0,0,0-.474.474v.149a.474.474,0,0,0,.474.474,2.827,2.827,0,0,1,.523.046,1.906,1.906,0,0,1,.078.705v8.78a4.937,4.937,0,0,0,1.424,3.726,5.266,5.266,0,0,0,3.784,1.357,6.866,6.866,0,0,0,4.578-1.707v1.133a.474.474,0,0,0,.474.474h2.777a.474.474,0,0,0,.474-.474v-.149a.474.474,0,0,0-.474-.474,1.018,1.018,0,0,1-.468-.064.213.213,0,0,1-.1-.113,3.36,3.36,0,0,1-.047-.782V153.375a1.621,1.621,0,0,1,.044-.42,1.587,1.587,0,0,1,.594-.1.474.474,0,0,0,.447-.473v-.149A.474.474,0,0,0,395.379,151.757Z" fill="#231f20"/>
      <path id="Path_419" data-name="Path 419" d="M428.183,151.757h-2.837a.474.474,0,0,0-.474.474v.149a.474.474,0,0,0,.474.474,1.049,1.049,0,0,1,.5.1s.094.124.094.633v9.152l-10.17-10.829a.474.474,0,0,0-.346-.15h-2.757a.474.474,0,0,0-.474.474v.149a.474.474,0,0,0,.147.343.458.458,0,0,0,.349.13c.99-.046,1.164.353,1.221.484a4.888,4.888,0,0,1,.324,1.938v9.918a3.546,3.546,0,0,1-.084,1h0a1.113,1.113,0,0,1-.567.083.474.474,0,0,0-.474.474v.149a.474.474,0,0,0,.474.474H416.4a.474.474,0,0,0,.474-.474v-.149a.474.474,0,0,0-.4-.469c-.422-.064-.552-.114-.555-.1a.329.329,0,0,1-.039-.089,2.235,2.235,0,0,1-.057-.621v-9.646L426.693,167.4a.474.474,0,0,0,.346.149.484.484,0,0,0,.174-.033.474.474,0,0,0,.3-.441V153.724c0-.6.113-.738.113-.738.019-.02.137-.119.572-.132a.474.474,0,0,0,.459-.474v-.149A.474.474,0,0,0,428.183,151.757Z" fill="#231f20"/>
      <path id="Path_420" data-name="Path 420" d="M452.319,158.662c-.576-.265-1.6-.645-3.112-1.155a3.243,3.243,0,0,1-1.511-.95,1.951,1.951,0,0,1-.33-1.141,2.322,2.322,0,0,1,.738-1.736,2.789,2.789,0,0,1,2.054-.726,3.333,3.333,0,0,1,2.529,1.058c.295.308.468.49.519.548a.428.428,0,0,0,.069.072.466.466,0,0,0,.383.107l.12-.019a.475.475,0,0,0,.366-.637l-.7-1.831a.473.473,0,0,0-.36-.3,7.509,7.509,0,0,0-1.026-.237q-3.3-.652-5.088,1.112a4.325,4.325,0,0,0-1.311,3.192,4.41,4.41,0,0,0,.511,2.032,3.869,3.869,0,0,0,1.3,1.514,12.532,12.532,0,0,0,2.468,1.083,11.111,11.111,0,0,1,2.19.931,2.726,2.726,0,0,1,.808.795,1.9,1.9,0,0,1,.265,1.035,2.308,2.308,0,0,1-.817,1.78,3.648,3.648,0,0,1-2.522.762,4.184,4.184,0,0,1-2.728-.722,3.387,3.387,0,0,1-.83-2.6.473.473,0,0,0-.474-.469h-.149a.474.474,0,0,0-.474.474v4.26a.474.474,0,0,0,.474.474H449.6c.226,0,.66-.037,1.328-.112a5.14,5.14,0,0,0,1.564-.367,3.912,3.912,0,0,0,1-.711,5.009,5.009,0,0,0,.818-1.01,4.269,4.269,0,0,0,.5-1.174,5.009,5.009,0,0,0,.155-1.257,3.99,3.99,0,0,0-.884-2.652A5.239,5.239,0,0,0,452.319,158.662Z" fill="#231f20"/>
      <path id="Path_421" data-name="Path 421" d="M482.076,164.409h-.149a.474.474,0,0,0-.469.4c-.105.7-.238.842-.244.848a.692.692,0,0,1-.35.2,8,8,0,0,1-1.462.07h-2.585a4.5,4.5,0,0,1-1.121-.1.432.432,0,0,1-.291-.293,3.656,3.656,0,0,1-.152-1.3v-4.055h4.135a3.983,3.983,0,0,1,.43.024.317.317,0,0,1,.019.07.473.473,0,0,0,.467.394h.149a.474.474,0,0,0,.474-.474v-1.384a.474.474,0,0,0-.474-.474H480.3a.49.49,0,0,0-.474.446,2.578,2.578,0,0,1-.561.042h-4.016V153.2h4.364a2.735,2.735,0,0,1,.662.057,4.248,4.248,0,0,1,.383,1.113.474.474,0,0,0,.458.353h.15a.474.474,0,0,0,.474-.474v-2.021a.474.474,0,0,0-.474-.474h-9.219a.474.474,0,0,0-.474.474v.169a.474.474,0,0,0,.474.474,2.141,2.141,0,0,1,.463.047,2.809,2.809,0,0,1,.1.941V165.7a1.948,1.948,0,0,1-.046.452,1.249,1.249,0,0,1-.543.12.474.474,0,0,0-.447.473v.149a.474.474,0,0,0,.474.474h10.025a.474.474,0,0,0,.474-.474v-2.011A.474.474,0,0,0,482.076,164.409Z" fill="#231f20"/>
      <path id="Path_422" data-name="Path 422" d="M511.34,151.456a.475.475,0,0,0-.392-.207H510.8a.476.476,0,0,0-.45.324.612.612,0,0,1-.058.129,2.766,2.766,0,0,1-.695.055h-9.729c-.409,0-.541-.029-.538-.023a.822.822,0,0,1-.141-.223.477.477,0,0,0-.425-.262h-.149a.475.475,0,0,0-.441.648l.7,1.772a.473.473,0,0,0,.441.3h.149a.474.474,0,0,0,.454-.609c-.02-.07-.034-.123-.043-.164.086-.007.215-.013.4-.013h3.191v12.279a1.971,1.971,0,0,1-.075.687h0a1.322,1.322,0,0,1-.607.123.474.474,0,0,0-.443.473v.149a.474.474,0,0,0,.474.474h3.972a.474.474,0,0,0,.474-.474v-.149a.474.474,0,0,0-.474-.474,1.917,1.917,0,0,1-.531-.046.263.263,0,0,1-.065-.1,2.526,2.526,0,0,1-.085-.869v-12.07h3.35c.089,0,.158,0,.209.008a1.033,1.033,0,0,1-.023.19.474.474,0,0,0,.46.588h.149a.473.473,0,0,0,.441-.3l.7-1.772A.477.477,0,0,0,511.34,151.456Z" fill="#231f20"/>
      <g id="Group_192" data-name="Group 192">
        <g id="Group_191" data-name="Group 191">
          <path id="Path_423" data-name="Path 423" d="M365.544,189.966c-.331-.694-.376-.84-.38-.845l-5.3-13.171H359.3l-5.37,13.547a2.41,2.41,0,0,1-.579,1.013,1.008,1.008,0,0,1-.607.172h-.222v.594h2.624v-.594h-.222c-.266,0-.266-.072-.266-.105a3.146,3.146,0,0,1,.213-.655l2.164-5.4h4l2.041,5.066.012.03.013.058a.6.6,0,0,0,.089.176,2.051,2.051,0,0,1,.2.679c0,.072,0,.146-.245.146h-.222v.594h3.868v-.594h-.222A1.087,1.087,0,0,1,365.544,189.966Zm-8.192-6.292,1.657-4.173,1.655,4.173Z" fill="#231f20"/>
          <path id="Path_424" data-name="Path 424" d="M379.715,176.69a7.9,7.9,0,0,0-3.339-.521h-4.4v.593h.222c.46,0,.612.106.662.169a1.566,1.566,0,0,1,.151.892v12.136c0,.507-.243.723-.813.723h-.222v.594h4.317v-.594h-.222a1.217,1.217,0,0,1-.762-.151c-.017-.014-.161-.164-.161-1.1V177.111h.823a4.667,4.667,0,0,1,2.229.409,2.76,2.76,0,0,1,1.1,1.185,4.036,4.036,0,0,1,.4,1.827,2.774,2.774,0,0,1-.8,2.091,2.855,2.855,0,0,1-2.109.793h-.222v.589l.218,0a5.9,5.9,0,0,0,3.619-.94,3.464,3.464,0,0,0,1.376-2.98,3.9,3.9,0,0,0-.5-2.076A3.728,3.728,0,0,0,379.715,176.69Z" fill="#231f20"/>
          <path id="Path_425" data-name="Path 425" d="M398.137,189.966c-.331-.694-.376-.84-.38-.845l-5.3-13.171h-.565l-5.37,13.547a2.41,2.41,0,0,1-.579,1.013,1.008,1.008,0,0,1-.607.172h-.222v.594h2.624v-.594h-.222c-.265,0-.265-.072-.265-.105a2.994,2.994,0,0,1,.212-.655l2.165-5.4h4l2.041,5.066.012.03.013.058a.657.657,0,0,0,.089.176,2.067,2.067,0,0,1,.2.679c0,.072,0,.146-.246.146h-.222v.594h3.868v-.594h-.222A1.087,1.087,0,0,1,398.137,189.966Zm-8.192-6.292L391.6,179.5l1.655,4.173Z" fill="#231f20"/>
          <path id="Path_426" data-name="Path 426" d="M419.806,189.828a3.232,3.232,0,0,1-1.579.536,2.971,2.971,0,0,1-1.435-.415,9.1,9.1,0,0,1-2.183-2.4c-.963-1.334-1.563-2.207-1.791-2.607l-.908-1.4a5.6,5.6,0,0,0,1.769-1.659,4.021,4.021,0,0,0,.709-2.249,3.553,3.553,0,0,0-.407-1.758,2.923,2.923,0,0,0-1.209-1.153,4.167,4.167,0,0,0-1.531-.489c-.478-.046-1.256-.07-2.311-.07h-4.383v.59l.219,0c.277,0,.624.049.7.244a2.33,2.33,0,0,1,.134.857v11.648a2,2,0,0,1-.139.974c-.033.052-.169.175-.7.2l-.212.009v.585h4.227v-.594h-.222c-.358,0-.6-.066-.668-.186a1.706,1.706,0,0,1-.146-.854v-5.384h.972l1.181-.036,1.383,2.127.007.049.051.049a23.594,23.594,0,0,0,3.215,4.164,3.567,3.567,0,0,0,2.329.8,4.981,4.981,0,0,0,3.244-1.026l.115-.094-.184-.613ZM407.738,177h.985a3.294,3.294,0,0,1,2.856,1.116,4.145,4.145,0,0,1,.822,2.435,2.763,2.763,0,0,1-.811,2.091,3.534,3.534,0,0,1-2.538.793h-1.314Z" fill="#231f20"/>
          <path id="Path_427" data-name="Path 427" d="M433.477,175.813c-.083.248-.19.28-.226.29a2.921,2.921,0,0,1-.766.066h-9.729a2.058,2.058,0,0,1-.663-.057c-.017-.007-.106-.056-.242-.328l-.061-.123h-.613l.872,2.216h.6l-.085-.285a1.34,1.34,0,0,1-.07-.335c0-.051.008-.109.026-.116a2.237,2.237,0,0,1,.646-.05h3.443v12.53c0,.612-.1.8-.142.857-.03.038-.174.164-.776.205l-.207.014v.579H429.9v-.594h-.222a2.054,2.054,0,0,1-.619-.062.4.4,0,0,1-.208-.238,2.724,2.724,0,0,1-.106-.97V177.091h3.6a1.351,1.351,0,0,1,.44.048c.016.007.024.036.024.088a1.569,1.569,0,0,1-.034.375l-.067.275h.584l.871-2.216h-.635Z" fill="#231f20"/>
          <path id="Path_428" data-name="Path 428" d="M455.961,190.489a2.531,2.531,0,0,1-.272-.959l-1.542-11.107a5.265,5.265,0,0,1-.057-.658.876.876,0,0,1,.963-1l.21-.011v-.582h-2.682l-5.027,11.654-5.011-11.654H439.41v.593h.222a1.581,1.581,0,0,1,.691.177c.148.072.387.308.687,1.015l-1.669,11.789a3.639,3.639,0,0,1-.111.576.63.63,0,0,1-.156.293s-.088.07-.507.07h-.222v.594h2.683v-.594h-.222c-.414,0-.448-.173-.448-.351a3.4,3.4,0,0,1,.037-.532l1.38-10.047,5.028,11.524h.391l5-11.543,1.4,9.985a4.912,4.912,0,0,1,.058.554.443.443,0,0,1-.1.323.452.452,0,0,1-.334.087l-.229-.007v.6h3.739V190.7l-.2-.018C456.134,190.648,456,190.547,455.961,190.489Z" fill="#231f20"/>
          <path id="Path_429" data-name="Path 429" d="M471.726,189.009a1.976,1.976,0,0,1-.31.984.935.935,0,0,1-.473.273,8.061,8.061,0,0,1-1.523.078h-2.584a4.827,4.827,0,0,1-1.189-.107.687.687,0,0,1-.456-.439,4,4,0,0,1-.171-1.393V184.1h4.386a1.39,1.39,0,0,1,.577.072.31.31,0,0,1,.121.231l.031.185h.559v-1.828h-.585l-.009.212a.215.215,0,0,1-.094.191,1.565,1.565,0,0,1-.719.084H465.02v-6.135h4.615c.672,0,.823.113.846.136a3.46,3.46,0,0,1,.443,1.222l.044.165h.542v-2.465h-9.662v.613h.222c.387,0,.64.07.692.193a2.948,2.948,0,0,1,.121,1.047V189.86c0,.522-.121.638-.159.662a1.471,1.471,0,0,1-.667.161l-.209.012v.581h10.468v-2.455h-.562Z" fill="#231f20"/>
          <path id="Path_430" data-name="Path 430" d="M489.632,176.762h.222a1.236,1.236,0,0,1,.65.151c.046.028.193.171.193.831v9.788l-10.671-11.363H476.95v.6l.232-.01c.779-.034,1.261.172,1.464.634a5.125,5.125,0,0,1,.345,2.039v9.917a2.434,2.434,0,0,1-.146,1.158c-.027.04-.164.172-.757.172h-.222v.594h3.261v-.563l-.189-.028a2.394,2.394,0,0,1-.665-.15.385.385,0,0,1-.132-.216,2.521,2.521,0,0,1-.069-.7V179.339l11.7,12.454V177.884c0-.631.116-.844.185-.915a1.078,1.078,0,0,1,.744-.207l.215-.007v-.586h-3.281Z" fill="#231f20"/>
          <path id="Path_431" data-name="Path 431" d="M510.112,175.661l-.05.152c-.083.248-.19.28-.225.29a2.944,2.944,0,0,1-.767.066h-9.73a2.057,2.057,0,0,1-.662-.057c-.017-.007-.107-.056-.242-.328l-.062-.123h-.612l.871,2.216h.6l-.085-.285a1.308,1.308,0,0,1-.071-.335c0-.051.008-.109.026-.116a2.251,2.251,0,0,1,.646-.05h3.443v12.53c0,.612-.1.8-.141.857-.03.038-.174.164-.776.205l-.207.014v.579h4.415v-.594h-.222a2.045,2.045,0,0,1-.618-.062.4.4,0,0,1-.209-.237,2.753,2.753,0,0,1-.105-.971V177.091h3.6a1.3,1.3,0,0,1,.439.049q.024.009.024.087a1.636,1.636,0,0,1-.033.374l-.069.276h.585l.872-2.216Z" fill="#231f20"/>
        </g>
      </g>
    </g>
    <path id="Path_432" data-name="Path 432" d="M475.785,119.057a.26.26,0,0,0-.38.1,20.631,20.631,0,0,1-2.39,3.577,18.753,18.753,0,0,0-.065-2.777c-1.537-21.879-22.132-38.251-46.006-36.573s-41.977,20.769-40.44,42.648a35.358,35.358,0,0,0,.434,3.575c-.549.293-1.091.6-1.621.933-.655.411-1.289.853-1.9,1.32-.292.221-.008.723.293.5,5.191-3.853,11.761-4.076,17.946-3.346,3.272.386,6.508,1.024,9.745,1.628,3.524.658,7.051,1.263,10.551,2.05,7.383,1.659,14.732,3.665,22.3,4.295a30.237,30.237,0,0,0,9.233-.448,32.241,32.241,0,0,0,8.285-3.166,35.288,35.288,0,0,0,13.1-12.1q.555-.891,1.04-1.822A.289.289,0,0,0,475.785,119.057Zm-24.419,13.455,0,.017a44.62,44.62,0,0,1-5.558.026c-7.586-.429-14.966-2.377-22.341-4.071a99.743,99.743,0,0,0-15.579-2.581c1.821-11.235,12.785-18.92,24.678-17.214C444.589,110.414,453.006,121.078,451.366,132.512Z" fill="#231f20"/>
  </g>
</svg>
