<svg xmlns="http://www.w3.org/2000/svg" width="158.901" height="108.526" viewBox="0 0 158.901 108.526">
  <g id="logo-sa-yellow" transform="translate(-352.521 -652.742)">
    <g id="Group_205" data-name="Group 205">
      <path id="Path_465" data-name="Path 465" d="M361.989,728.137c-.576-.265-1.6-.646-3.113-1.155a3.243,3.243,0,0,1-1.51-.951,1.946,1.946,0,0,1-.33-1.14,2.322,2.322,0,0,1,.738-1.737,2.791,2.791,0,0,1,2.053-.726,3.339,3.339,0,0,1,2.529,1.058q.443.462.519.548a.483.483,0,0,0,.07.073.474.474,0,0,0,.383.107l.119-.02a.473.473,0,0,0,.367-.636l-.7-1.832a.472.472,0,0,0-.361-.3,7.426,7.426,0,0,0-1.025-.237q-3.3-.652-5.089,1.112a4.325,4.325,0,0,0-1.311,3.192,4.415,4.415,0,0,0,.511,2.032,3.867,3.867,0,0,0,1.3,1.513,12.405,12.405,0,0,0,2.468,1.084,10.985,10.985,0,0,1,2.19.931,2.709,2.709,0,0,1,.807.795,1.9,1.9,0,0,1,.265,1.034,2.312,2.312,0,0,1-.816,1.781,3.657,3.657,0,0,1-2.523.762,4.181,4.181,0,0,1-2.727-.722,3.383,3.383,0,0,1-.83-2.6.475.475,0,0,0-.474-.47h-.15a.474.474,0,0,0-.474.474v4.261a.475.475,0,0,0,.474.474h3.913c.225,0,.659-.037,1.327-.113a5.114,5.114,0,0,0,1.565-.366,3.94,3.94,0,0,0,1-.711,5.044,5.044,0,0,0,.819-1.01,4.3,4.3,0,0,0,.5-1.174,5.081,5.081,0,0,0,.154-1.257,3.981,3.981,0,0,0-.884-2.652A5.221,5.221,0,0,0,361.989,728.137Z" fill="#fcc100"/>
      <path id="Path_466" data-name="Path 466" d="M395.379,721.231h-3.862a.474.474,0,0,0-.474.474v.15a.474.474,0,0,0,.474.474h.139a.629.629,0,0,1,.352.07,3.268,3.268,0,0,1,.12,1.248v9.746a4.893,4.893,0,0,1-3.742,1.845,3.4,3.4,0,0,1-2.375-.956,4.3,4.3,0,0,1-1.028-3.259V722.97a1.385,1.385,0,0,1,.069-.545,1.06,1.06,0,0,1,.581-.1.474.474,0,0,0,.474-.474v-.15a.474.474,0,0,0-.474-.474h-3.892a.474.474,0,0,0-.474.474v.15a.474.474,0,0,0,.474.474,2.822,2.822,0,0,1,.523.046,1.892,1.892,0,0,1,.078.7v8.78a4.938,4.938,0,0,0,1.424,3.727,5.265,5.265,0,0,0,3.784,1.356,6.86,6.86,0,0,0,4.578-1.707v1.134a.474.474,0,0,0,.474.474h2.777a.474.474,0,0,0,.474-.474v-.15a.474.474,0,0,0-.474-.474,1,1,0,0,1-.468-.064.213.213,0,0,1-.1-.112,3.359,3.359,0,0,1-.047-.782V722.85a1.611,1.611,0,0,1,.044-.42,1.561,1.561,0,0,1,.594-.1.474.474,0,0,0,.447-.473v-.15A.474.474,0,0,0,395.379,721.231Z" fill="#fcc100"/>
      <path id="Path_467" data-name="Path 467" d="M428.183,721.231h-2.837a.474.474,0,0,0-.474.474v.15a.474.474,0,0,0,.474.474,1.063,1.063,0,0,1,.5.1s.094.124.094.634v9.152l-10.17-10.83a.478.478,0,0,0-.346-.15h-2.757a.474.474,0,0,0-.474.474v.15a.471.471,0,0,0,.147.342.459.459,0,0,0,.349.131c.99-.046,1.164.353,1.221.484a4.88,4.88,0,0,1,.324,1.937v9.918a3.551,3.551,0,0,1-.084,1h0a1.141,1.141,0,0,1-.567.082.474.474,0,0,0-.474.474v.15a.474.474,0,0,0,.474.474H416.4a.474.474,0,0,0,.474-.474v-.15a.474.474,0,0,0-.4-.468c-.422-.064-.552-.114-.555-.1a.329.329,0,0,1-.039-.089,2.239,2.239,0,0,1-.057-.622V725.29l10.877,11.582a.475.475,0,0,0,.346.15.464.464,0,0,0,.174-.034.473.473,0,0,0,.3-.44V723.2c0-.6.113-.738.113-.739.019-.019.137-.118.572-.132a.473.473,0,0,0,.459-.473v-.15A.474.474,0,0,0,428.183,721.231Z" fill="#fcc100"/>
      <path id="Path_468" data-name="Path 468" d="M452.319,728.137c-.576-.265-1.6-.646-3.112-1.155a3.242,3.242,0,0,1-1.511-.951,1.946,1.946,0,0,1-.33-1.14,2.325,2.325,0,0,1,.738-1.737,2.794,2.794,0,0,1,2.054-.726,3.343,3.343,0,0,1,2.529,1.058c.295.309.468.491.519.549a.468.468,0,0,0,.069.072.473.473,0,0,0,.383.107l.12-.02a.473.473,0,0,0,.366-.636l-.7-1.832a.47.47,0,0,0-.36-.3,7.52,7.52,0,0,0-1.026-.237q-3.3-.654-5.088,1.112a4.322,4.322,0,0,0-1.311,3.192,4.413,4.413,0,0,0,.511,2.032,3.876,3.876,0,0,0,1.3,1.514,12.534,12.534,0,0,0,2.468,1.083,11.061,11.061,0,0,1,2.19.93,2.728,2.728,0,0,1,.808.8,1.9,1.9,0,0,1,.265,1.034,2.31,2.31,0,0,1-.817,1.781,3.653,3.653,0,0,1-2.522.762,4.184,4.184,0,0,1-2.728-.722,3.387,3.387,0,0,1-.83-2.6.474.474,0,0,0-.474-.47h-.149a.474.474,0,0,0-.474.474v4.261a.474.474,0,0,0,.474.474H449.6c.226,0,.66-.037,1.328-.113a5.114,5.114,0,0,0,1.564-.366,3.937,3.937,0,0,0,1-.711,5.038,5.038,0,0,0,.818-1.01,4.269,4.269,0,0,0,.5-1.174,5.021,5.021,0,0,0,.155-1.257,3.988,3.988,0,0,0-.884-2.652A5.214,5.214,0,0,0,452.319,728.137Z" fill="#fcc100"/>
      <path id="Path_469" data-name="Path 469" d="M482.076,733.884h-.149a.474.474,0,0,0-.469.4,1.825,1.825,0,0,1-.244.849.706.706,0,0,1-.35.2,8,8,0,0,1-1.462.07h-2.585a4.426,4.426,0,0,1-1.121-.1.428.428,0,0,1-.291-.292,3.656,3.656,0,0,1-.152-1.3v-4.056h4.135a3.757,3.757,0,0,1,.43.025.3.3,0,0,1,.019.07.473.473,0,0,0,.467.393h.149a.474.474,0,0,0,.474-.474v-1.384a.474.474,0,0,0-.474-.474H480.3a.491.491,0,0,0-.474.446,2.51,2.51,0,0,1-.561.042h-4.016v-5.632h4.364a2.808,2.808,0,0,1,.662.057,4.27,4.27,0,0,1,.383,1.114.473.473,0,0,0,.458.352h.15a.474.474,0,0,0,.474-.474v-2.021a.474.474,0,0,0-.474-.474h-9.219a.474.474,0,0,0-.474.474v.17a.474.474,0,0,0,.474.474,2.3,2.3,0,0,1,.463.046,2.818,2.818,0,0,1,.1.942v11.838a1.93,1.93,0,0,1-.046.451,1.218,1.218,0,0,1-.543.12.475.475,0,0,0-.447.473v.15a.474.474,0,0,0,.474.474h10.025a.474.474,0,0,0,.474-.474v-2.011A.474.474,0,0,0,482.076,733.884Z" fill="#fcc100"/>
      <path id="Path_470" data-name="Path 470" d="M511.34,720.931a.473.473,0,0,0-.392-.207H510.8a.474.474,0,0,0-.45.324.618.618,0,0,1-.058.128,2.713,2.713,0,0,1-.695.055h-9.729c-.409,0-.541-.028-.538-.022a.867.867,0,0,1-.141-.223.475.475,0,0,0-.425-.262h-.149a.474.474,0,0,0-.441.647l.7,1.772a.474.474,0,0,0,.441.3h.149a.474.474,0,0,0,.454-.61c-.02-.069-.034-.123-.043-.164.086-.007.215-.013.4-.013h3.191v12.279a1.975,1.975,0,0,1-.075.688h0a1.316,1.316,0,0,1-.607.122.475.475,0,0,0-.443.473v.15a.474.474,0,0,0,.474.474h3.972a.474.474,0,0,0,.474-.474v-.15a.474.474,0,0,0-.474-.474,1.868,1.868,0,0,1-.531-.046.251.251,0,0,1-.065-.1,2.526,2.526,0,0,1-.085-.869v-12.07h3.35c.089,0,.158,0,.209.008a1.033,1.033,0,0,1-.023.19.475.475,0,0,0,.46.589h.149a.474.474,0,0,0,.441-.3l.7-1.772A.475.475,0,0,0,511.34,720.931Z" fill="#fcc100"/>
      <g id="Group_204" data-name="Group 204">
        <g id="Group_203" data-name="Group 203">
          <path id="Path_471" data-name="Path 471" d="M365.544,759.441c-.331-.694-.376-.841-.38-.846l-5.3-13.171H359.3l-5.37,13.548a2.41,2.41,0,0,1-.579,1.012,1.009,1.009,0,0,1-.607.173h-.222v.593h2.624v-.593h-.222c-.266,0-.266-.072-.266-.106a3.156,3.156,0,0,1,.213-.654l2.164-5.4h4l2.041,5.067.012.029.013.059a.586.586,0,0,0,.089.175,2.057,2.057,0,0,1,.2.679c0,.072,0,.147-.245.147h-.222v.593h3.868v-.593h-.222A1.087,1.087,0,0,1,365.544,759.441Zm-8.192-6.292,1.657-4.173,1.655,4.173Z" fill="#fcc100"/>
          <path id="Path_472" data-name="Path 472" d="M379.715,746.165a7.9,7.9,0,0,0-3.339-.522h-4.4v.594h.222c.46,0,.612.1.662.168a1.571,1.571,0,0,1,.151.893v12.136c0,.506-.243.723-.813.723h-.222v.593h4.317v-.593h-.222a1.224,1.224,0,0,1-.762-.151c-.017-.014-.161-.164-.161-1.1V746.585h.823a4.679,4.679,0,0,1,2.229.409,2.768,2.768,0,0,1,1.1,1.186,4.033,4.033,0,0,1,.4,1.827,2.774,2.774,0,0,1-.8,2.091,2.854,2.854,0,0,1-2.109.792h-.222v.59l.218,0a5.9,5.9,0,0,0,3.619-.94,3.467,3.467,0,0,0,1.376-2.981,3.9,3.9,0,0,0-.5-2.076A3.727,3.727,0,0,0,379.715,746.165Z" fill="#fcc100"/>
          <path id="Path_473" data-name="Path 473" d="M398.137,759.441c-.331-.694-.376-.841-.38-.846l-5.3-13.171h-.565l-5.37,13.548a2.411,2.411,0,0,1-.579,1.012,1.009,1.009,0,0,1-.607.173h-.222v.593h2.624v-.593h-.222c-.265,0-.265-.072-.265-.106a3,3,0,0,1,.212-.654l2.165-5.4h4l2.041,5.067.012.029.013.059a.636.636,0,0,0,.089.175,2.073,2.073,0,0,1,.2.679c0,.072,0,.147-.246.147h-.222v.593h3.868v-.593h-.222A1.087,1.087,0,0,1,398.137,759.441Zm-8.192-6.292,1.657-4.173,1.655,4.173Z" fill="#fcc100"/>
          <path id="Path_474" data-name="Path 474" d="M419.806,759.3a3.221,3.221,0,0,1-1.579.536,2.98,2.98,0,0,1-1.435-.414,9.129,9.129,0,0,1-2.183-2.4c-.963-1.334-1.563-2.207-1.791-2.607l-.908-1.4a5.612,5.612,0,0,0,1.769-1.659,4.022,4.022,0,0,0,.709-2.25,3.549,3.549,0,0,0-.407-1.757,2.931,2.931,0,0,0-1.209-1.154,4.164,4.164,0,0,0-1.531-.488c-.478-.047-1.256-.071-2.311-.071h-4.383v.591l.219,0c.277,0,.624.049.7.243a2.34,2.34,0,0,1,.134.858v11.648a2,2,0,0,1-.139.974c-.033.052-.169.174-.7.2l-.212.009v.584h4.227v-.593h-.222c-.358,0-.6-.066-.668-.186a1.711,1.711,0,0,1-.146-.855v-5.383h.972l1.181-.036,1.383,2.127.007.048.051.049a23.517,23.517,0,0,0,3.215,4.164,3.562,3.562,0,0,0,2.329.8,4.986,4.986,0,0,0,3.244-1.025l.115-.094-.184-.613Zm-12.068-12.826h.985a3.291,3.291,0,0,1,2.856,1.116,4.143,4.143,0,0,1,.822,2.435,2.762,2.762,0,0,1-.811,2.09,3.534,3.534,0,0,1-2.538.793h-1.314Z" fill="#fcc100"/>
          <path id="Path_475" data-name="Path 475" d="M433.477,745.287c-.083.249-.19.28-.226.291a2.943,2.943,0,0,1-.766.065h-9.729a2.079,2.079,0,0,1-.663-.056c-.017-.007-.106-.057-.242-.328l-.061-.123h-.613l.872,2.216h.6l-.085-.286a1.323,1.323,0,0,1-.07-.335c0-.051.008-.109.026-.116a2.285,2.285,0,0,1,.646-.05h3.443V759.1c0,.612-.1.8-.142.857-.03.037-.174.164-.776.2l-.207.014v.579H429.9v-.593h-.222a2.053,2.053,0,0,1-.619-.062.405.405,0,0,1-.208-.238,2.728,2.728,0,0,1-.106-.97V746.565h3.6a1.306,1.306,0,0,1,.44.049c.016.006.024.036.024.088a1.583,1.583,0,0,1-.034.375l-.067.275h.584l.871-2.216h-.635Z" fill="#fcc100"/>
          <path id="Path_476" data-name="Path 476" d="M455.961,759.964a2.548,2.548,0,0,1-.272-.959L454.147,747.9a5.251,5.251,0,0,1-.057-.657.877.877,0,0,1,.963-1l.21-.01v-.583h-2.682L447.554,757.3l-5.011-11.654H439.41v.594h.222a1.581,1.581,0,0,1,.691.177c.148.072.387.307.687,1.014l-1.669,11.79a3.639,3.639,0,0,1-.111.576.631.631,0,0,1-.156.292s-.088.071-.507.071h-.222v.593h2.683v-.593h-.222c-.414,0-.448-.174-.448-.351a3.39,3.39,0,0,1,.037-.532l1.38-10.047L446.8,760.75h.391l5-11.543,1.4,9.985a4.957,4.957,0,0,1,.058.554.448.448,0,0,1-.1.324.452.452,0,0,1-.334.087l-.229-.007v.6h3.739v-.574l-.2-.018C456.134,760.123,456,760.021,455.961,759.964Z" fill="#fcc100"/>
          <path id="Path_477" data-name="Path 477" d="M471.726,758.484a1.964,1.964,0,0,1-.31.983.937.937,0,0,1-.473.274,8.223,8.223,0,0,1-1.523.077h-2.584a4.827,4.827,0,0,1-1.189-.107.685.685,0,0,1-.456-.438,4,4,0,0,1-.171-1.393v-4.307h4.386a1.36,1.36,0,0,1,.577.073.308.308,0,0,1,.121.231l.031.184h.559v-1.828h-.585l-.009.213a.213.213,0,0,1-.094.19c-.02.015-.15.085-.719.085H465.02v-6.136h4.615c.672,0,.823.114.846.136a3.486,3.486,0,0,1,.443,1.222l.044.165h.542v-2.465h-9.662v.614h.222c.387,0,.64.07.692.193a2.943,2.943,0,0,1,.121,1.047v11.837c0,.523-.121.639-.159.662a1.457,1.457,0,0,1-.667.161l-.209.012v.581h10.468v-2.455h-.562Z" fill="#fcc100"/>
          <path id="Path_478" data-name="Path 478" d="M489.632,746.237h.222a1.226,1.226,0,0,1,.65.151c.046.028.193.17.193.831v9.788l-10.671-11.364H476.95v.6l.232-.011c.779-.034,1.261.172,1.464.634a5.125,5.125,0,0,1,.345,2.039v9.918a2.438,2.438,0,0,1-.146,1.158c-.027.04-.164.172-.757.172h-.222v.593h3.261v-.562l-.189-.029a2.3,2.3,0,0,1-.665-.15.381.381,0,0,1-.132-.216,2.508,2.508,0,0,1-.069-.7V748.814l11.7,12.454V747.359c0-.632.116-.845.185-.915a1.073,1.073,0,0,1,.744-.207l.215-.007v-.587h-3.281Z" fill="#fcc100"/>
          <path id="Path_479" data-name="Path 479" d="M510.112,745.136l-.05.151c-.083.249-.19.28-.225.291a2.966,2.966,0,0,1-.767.065h-9.73a2.082,2.082,0,0,1-.662-.056c-.017-.007-.107-.057-.242-.329l-.062-.122h-.612l.871,2.216h.6l-.085-.286a1.3,1.3,0,0,1-.071-.335c0-.051.008-.109.026-.116a2.3,2.3,0,0,1,.646-.05h3.443V759.1c0,.612-.1.8-.141.856-.03.038-.174.165-.776.2l-.207.014v.579h4.415v-.593h-.222a2.044,2.044,0,0,1-.618-.062.4.4,0,0,1-.209-.238,2.74,2.74,0,0,1-.105-.97V746.565h3.6a1.3,1.3,0,0,1,.439.049c.016.006.024.036.024.088a1.648,1.648,0,0,1-.033.374l-.069.276h.585l.872-2.216Z" fill="#fcc100"/>
        </g>
      </g>
    </g>
    <path id="Path_480" data-name="Path 480" d="M475.785,688.532a.259.259,0,0,0-.38.1,20.623,20.623,0,0,1-2.39,3.576,18.758,18.758,0,0,0-.065-2.777c-1.537-21.879-22.132-38.251-46.006-36.573s-41.977,20.77-40.44,42.649a35.358,35.358,0,0,0,.434,3.575c-.549.293-1.091.6-1.621.932-.655.411-1.289.853-1.9,1.32-.292.222-.008.724.293.5,5.191-3.852,11.761-4.076,17.946-3.346,3.272.386,6.508,1.025,9.745,1.629,3.524.658,7.051,1.263,10.551,2.05,7.383,1.659,14.732,3.664,22.3,4.295a30.236,30.236,0,0,0,9.233-.449,32.239,32.239,0,0,0,8.285-3.166,35.285,35.285,0,0,0,13.1-12.1q.555-.891,1.04-1.822A.289.289,0,0,0,475.785,688.532Zm-24.419,13.455,0,.017a44.818,44.818,0,0,1-5.558.026c-7.586-.43-14.966-2.377-22.341-4.071a99.632,99.632,0,0,0-15.579-2.581c1.821-11.236,12.785-18.92,24.678-17.214C444.589,679.888,453.006,690.553,451.366,701.987Z" fill="#fcc100"/>
  </g>
</svg>
