<svg xmlns="http://www.w3.org/2000/svg" width="158.901" height="108.526" viewBox="0 0 158.901 108.526">
  <g id="logo-sa-orange" transform="translate(-352.521 -462.917)">
    <g id="Group_201" data-name="Group 201">
      <path id="Path_449" data-name="Path 449" d="M361.989,538.312c-.576-.265-1.6-.646-3.113-1.155a3.244,3.244,0,0,1-1.51-.95,1.951,1.951,0,0,1-.33-1.141,2.318,2.318,0,0,1,.738-1.736,2.787,2.787,0,0,1,2.053-.726,3.507,3.507,0,0,1,1.417.273,3.47,3.47,0,0,1,1.112.785c.3.307.468.49.519.547a.48.48,0,0,0,.07.073.474.474,0,0,0,.383.107l.119-.02a.473.473,0,0,0,.367-.636l-.7-1.832a.471.471,0,0,0-.361-.3,7.4,7.4,0,0,0-1.025-.237q-3.3-.652-5.089,1.112a4.324,4.324,0,0,0-1.311,3.192,4.416,4.416,0,0,0,.511,2.032,3.86,3.86,0,0,0,1.3,1.513,12.409,12.409,0,0,0,2.468,1.084,11.109,11.109,0,0,1,2.19.931,2.71,2.71,0,0,1,.807.8,1.9,1.9,0,0,1,.265,1.035,2.312,2.312,0,0,1-.816,1.78,3.658,3.658,0,0,1-2.523.762,4.181,4.181,0,0,1-2.727-.722,3.383,3.383,0,0,1-.83-2.6.475.475,0,0,0-.474-.47h-.15a.475.475,0,0,0-.474.474v4.261a.475.475,0,0,0,.474.474h3.913c.225,0,.659-.037,1.327-.113a5.115,5.115,0,0,0,1.565-.366,3.94,3.94,0,0,0,1-.711,5.044,5.044,0,0,0,.819-1.01,4.3,4.3,0,0,0,.5-1.174,5.08,5.08,0,0,0,.154-1.257,3.983,3.983,0,0,0-.884-2.652A5.221,5.221,0,0,0,361.989,538.312Z" fill="#f1a300"/>
      <path id="Path_450" data-name="Path 450" d="M395.379,531.407h-3.862a.474.474,0,0,0-.474.474v.149a.474.474,0,0,0,.474.474h.139a.629.629,0,0,1,.352.07,3.275,3.275,0,0,1,.12,1.248v9.746a4.893,4.893,0,0,1-3.742,1.845,3.4,3.4,0,0,1-2.375-.956,4.3,4.3,0,0,1-1.028-3.259v-8.053a1.391,1.391,0,0,1,.069-.545,1.061,1.061,0,0,1,.581-.1.474.474,0,0,0,.474-.474v-.149a.474.474,0,0,0-.474-.474h-3.892a.474.474,0,0,0-.474.474v.149a.474.474,0,0,0,.474.474,2.828,2.828,0,0,1,.523.046,1.9,1.9,0,0,1,.078.705v8.779a4.938,4.938,0,0,0,1.424,3.727,5.265,5.265,0,0,0,3.784,1.356,6.86,6.86,0,0,0,4.578-1.707v1.134a.474.474,0,0,0,.474.474h2.777a.474.474,0,0,0,.474-.474V546.4a.474.474,0,0,0-.474-.474,1.018,1.018,0,0,1-.468-.064.217.217,0,0,1-.1-.113,3.36,3.36,0,0,1-.047-.782V533.025a1.611,1.611,0,0,1,.044-.42,1.561,1.561,0,0,1,.594-.1.474.474,0,0,0,.447-.473v-.149A.474.474,0,0,0,395.379,531.407Z" fill="#f1a300"/>
      <path id="Path_451" data-name="Path 451" d="M428.183,531.407h-2.837a.474.474,0,0,0-.474.474v.149a.474.474,0,0,0,.474.474,1.064,1.064,0,0,1,.5.1s.094.124.094.634v9.152l-10.17-10.83a.477.477,0,0,0-.346-.149h-2.757a.474.474,0,0,0-.474.474v.149a.471.471,0,0,0,.147.342.455.455,0,0,0,.349.131c.99-.046,1.164.353,1.221.484a4.882,4.882,0,0,1,.324,1.938v9.917a3.551,3.551,0,0,1-.084,1h0a1.129,1.129,0,0,1-.567.083.474.474,0,0,0-.474.474v.149a.474.474,0,0,0,.474.474H416.4a.474.474,0,0,0,.474-.474V546.4a.474.474,0,0,0-.4-.469c-.422-.064-.552-.114-.555-.1a.329.329,0,0,1-.039-.089,2.238,2.238,0,0,1-.057-.622v-9.646l10.877,11.582a.471.471,0,0,0,.346.15.466.466,0,0,0,.174-.034.473.473,0,0,0,.3-.44V533.374c0-.6.113-.738.113-.739.019-.019.137-.118.572-.131a.474.474,0,0,0,.459-.474v-.149A.474.474,0,0,0,428.183,531.407Z" fill="#f1a300"/>
      <path id="Path_452" data-name="Path 452" d="M452.319,538.312c-.576-.265-1.6-.645-3.112-1.155a3.233,3.233,0,0,1-1.511-.951,1.946,1.946,0,0,1-.33-1.14,2.321,2.321,0,0,1,.738-1.736,2.789,2.789,0,0,1,2.054-.726,3.337,3.337,0,0,1,2.529,1.057c.295.309.468.491.519.549a.468.468,0,0,0,.069.072.473.473,0,0,0,.383.107l.12-.02a.473.473,0,0,0,.366-.636l-.7-1.832a.47.47,0,0,0-.36-.3,7.5,7.5,0,0,0-1.026-.237q-3.3-.654-5.088,1.112a4.321,4.321,0,0,0-1.311,3.192,4.41,4.41,0,0,0,.511,2.032,3.876,3.876,0,0,0,1.3,1.514,12.534,12.534,0,0,0,2.468,1.083,11.065,11.065,0,0,1,2.19.93,2.729,2.729,0,0,1,.808.8,1.9,1.9,0,0,1,.265,1.035,2.31,2.31,0,0,1-.817,1.78,3.653,3.653,0,0,1-2.522.762,4.184,4.184,0,0,1-2.728-.722,3.387,3.387,0,0,1-.83-2.6.474.474,0,0,0-.474-.47h-.149a.474.474,0,0,0-.474.474v4.261a.474.474,0,0,0,.474.474H449.6c.226,0,.66-.037,1.328-.113a5.116,5.116,0,0,0,1.564-.366,3.937,3.937,0,0,0,1-.711,5.038,5.038,0,0,0,.818-1.01,4.269,4.269,0,0,0,.5-1.174,5.02,5.02,0,0,0,.155-1.257,3.99,3.99,0,0,0-.884-2.652A5.214,5.214,0,0,0,452.319,538.312Z" fill="#f1a300"/>
      <path id="Path_453" data-name="Path 453" d="M482.076,544.059h-.149a.474.474,0,0,0-.469.4,1.825,1.825,0,0,1-.244.849.7.7,0,0,1-.35.2,8,8,0,0,1-1.462.07h-2.585a4.426,4.426,0,0,1-1.121-.1.427.427,0,0,1-.291-.292,3.656,3.656,0,0,1-.152-1.3V539.84h4.135a4.11,4.11,0,0,1,.43.025.3.3,0,0,1,.019.07.473.473,0,0,0,.467.393h.149a.474.474,0,0,0,.474-.474V538.47a.474.474,0,0,0-.474-.474H480.3a.491.491,0,0,0-.474.446,2.51,2.51,0,0,1-.561.042h-4.016v-5.632h4.364a2.813,2.813,0,0,1,.662.057,4.293,4.293,0,0,1,.383,1.114.474.474,0,0,0,.458.353h.15a.474.474,0,0,0,.474-.474v-2.021a.474.474,0,0,0-.474-.474h-9.219a.474.474,0,0,0-.474.474v.169a.474.474,0,0,0,.474.474,2.3,2.3,0,0,1,.463.046,2.818,2.818,0,0,1,.1.942V545.35a1.931,1.931,0,0,1-.046.451,1.22,1.22,0,0,1-.543.12.475.475,0,0,0-.447.474v.149a.474.474,0,0,0,.474.474h10.025a.474.474,0,0,0,.474-.474v-2.011A.474.474,0,0,0,482.076,544.059Z" fill="#f1a300"/>
      <path id="Path_454" data-name="Path 454" d="M511.34,531.106a.473.473,0,0,0-.392-.207H510.8a.474.474,0,0,0-.45.324.687.687,0,0,1-.058.129,2.766,2.766,0,0,1-.695.055h-9.729c-.409,0-.541-.029-.538-.023a.844.844,0,0,1-.141-.223.475.475,0,0,0-.425-.262h-.149a.474.474,0,0,0-.441.647l.7,1.772a.473.473,0,0,0,.441.3h.149a.474.474,0,0,0,.454-.61c-.02-.069-.034-.123-.043-.163.086-.008.215-.013.4-.013h3.191v12.278a1.975,1.975,0,0,1-.075.688h0a1.322,1.322,0,0,1-.607.123.474.474,0,0,0-.443.473v.149a.474.474,0,0,0,.474.474h3.972a.474.474,0,0,0,.474-.474V546.4a.474.474,0,0,0-.474-.474,1.843,1.843,0,0,1-.531-.047.24.24,0,0,1-.065-.1,2.535,2.535,0,0,1-.085-.87V532.833h3.35c.089,0,.158,0,.209.008a1.033,1.033,0,0,1-.023.189.475.475,0,0,0,.46.589h.149a.473.473,0,0,0,.441-.3l.7-1.772A.475.475,0,0,0,511.34,531.106Z" fill="#f1a300"/>
      <g id="Group_200" data-name="Group 200">
        <g id="Group_199" data-name="Group 199">
          <path id="Path_455" data-name="Path 455" d="M365.544,569.616c-.331-.694-.376-.84-.38-.846l-5.3-13.17H359.3l-5.37,13.547a2.41,2.41,0,0,1-.579,1.012,1,1,0,0,1-.607.173h-.222v.593h2.624v-.593h-.222c-.266,0-.266-.072-.266-.1a3.123,3.123,0,0,1,.213-.655l2.164-5.4h4l2.041,5.067.012.03.013.058a.585.585,0,0,0,.089.175,2.057,2.057,0,0,1,.2.679c0,.072,0,.147-.245.147h-.222v.593h3.868v-.593h-.222A1.087,1.087,0,0,1,365.544,569.616Zm-8.192-6.292,1.657-4.173,1.655,4.173Z" fill="#f1a300"/>
          <path id="Path_456" data-name="Path 456" d="M379.715,556.34a7.9,7.9,0,0,0-3.339-.521h-4.4v.593h.222c.46,0,.612.106.662.168a1.574,1.574,0,0,1,.151.893v12.136c0,.507-.243.723-.813.723h-.222v.593h4.317v-.593h-.222a1.225,1.225,0,0,1-.762-.151c-.017-.014-.161-.164-.161-1.1V556.76h.823a4.679,4.679,0,0,1,2.229.409,2.768,2.768,0,0,1,1.1,1.186,4.033,4.033,0,0,1,.4,1.827,2.774,2.774,0,0,1-.8,2.091,2.854,2.854,0,0,1-2.109.792h-.222v.59l.218,0a5.9,5.9,0,0,0,3.619-.94,3.466,3.466,0,0,0,1.376-2.98,3.9,3.9,0,0,0-.5-2.076A3.721,3.721,0,0,0,379.715,556.34Z" fill="#f1a300"/>
          <path id="Path_457" data-name="Path 457" d="M398.137,569.616c-.331-.694-.376-.84-.38-.846l-5.3-13.17h-.565l-5.37,13.547a2.41,2.41,0,0,1-.579,1.012,1,1,0,0,1-.607.173h-.222v.593h2.624v-.593h-.222c-.265,0-.265-.072-.265-.1a2.973,2.973,0,0,1,.212-.655l2.165-5.4h4l2.041,5.067.012.03.013.058a.635.635,0,0,0,.089.175,2.074,2.074,0,0,1,.2.679c0,.072,0,.147-.246.147h-.222v.593h3.868v-.593h-.222A1.087,1.087,0,0,1,398.137,569.616Zm-8.192-6.292,1.657-4.173,1.655,4.173Z" fill="#f1a300"/>
          <path id="Path_458" data-name="Path 458" d="M419.806,569.477a3.221,3.221,0,0,1-1.579.536,2.969,2.969,0,0,1-1.435-.414,9.112,9.112,0,0,1-2.183-2.4c-.963-1.334-1.563-2.207-1.791-2.606l-.908-1.4a5.612,5.612,0,0,0,1.769-1.659,4.022,4.022,0,0,0,.709-2.25,3.549,3.549,0,0,0-.407-1.757,2.923,2.923,0,0,0-1.209-1.153,4.169,4.169,0,0,0-1.531-.489c-.478-.047-1.256-.07-2.311-.07h-4.383v.59l.219,0c.277,0,.624.049.7.244a2.33,2.33,0,0,1,.134.857v11.648a2,2,0,0,1-.139.974c-.033.052-.169.174-.7.2l-.212.009v.584h4.227v-.593h-.222c-.358,0-.6-.066-.668-.186a1.709,1.709,0,0,1-.146-.854v-5.384h.972l1.181-.036L411.274,566l.007.048.051.049a23.512,23.512,0,0,0,3.215,4.164,3.562,3.562,0,0,0,2.329.8,4.986,4.986,0,0,0,3.244-1.025l.115-.094-.184-.613Zm-12.068-12.826h.985a3.291,3.291,0,0,1,2.856,1.116,4.143,4.143,0,0,1,.822,2.435,2.762,2.762,0,0,1-.811,2.09,3.53,3.53,0,0,1-2.538.793h-1.314Z" fill="#f1a300"/>
          <path id="Path_459" data-name="Path 459" d="M433.477,555.462c-.083.249-.19.281-.226.291a2.92,2.92,0,0,1-.766.066h-9.729a2.06,2.06,0,0,1-.663-.057c-.017-.007-.106-.057-.242-.328l-.061-.123h-.613l.872,2.216h.6l-.085-.286a1.328,1.328,0,0,1-.07-.334c0-.052.008-.11.026-.117a2.317,2.317,0,0,1,.646-.049h3.443v12.53c0,.612-.1.8-.142.857-.03.037-.174.164-.776.2l-.207.014v.579H429.9v-.593h-.222a2.056,2.056,0,0,1-.619-.062.4.4,0,0,1-.208-.238,2.724,2.724,0,0,1-.106-.97V556.741h3.6a1.321,1.321,0,0,1,.44.048c.016.007.024.036.024.088a1.576,1.576,0,0,1-.034.375l-.067.275h.584l.871-2.216h-.635Z" fill="#f1a300"/>
          <path id="Path_460" data-name="Path 460" d="M455.961,570.139a2.548,2.548,0,0,1-.272-.959l-1.542-11.108a5.238,5.238,0,0,1-.057-.657.878.878,0,0,1,.963-1l.21-.01v-.582h-2.682l-5.027,11.653-5.011-11.653H439.41v.593h.222a1.581,1.581,0,0,1,.691.177c.148.072.387.308.687,1.015l-1.669,11.789a3.639,3.639,0,0,1-.111.576.631.631,0,0,1-.156.292s-.088.071-.507.071h-.222v.593h2.683v-.593h-.222c-.414,0-.448-.173-.448-.351a3.4,3.4,0,0,1,.037-.532l1.38-10.047,5.028,11.523h.391l5-11.543,1.4,9.986a4.93,4.93,0,0,1,.058.553.448.448,0,0,1-.1.324.452.452,0,0,1-.334.087l-.229-.007v.6h3.739v-.574l-.2-.018C456.134,570.3,456,570.2,455.961,570.139Z" fill="#f1a300"/>
          <path id="Path_461" data-name="Path 461" d="M471.726,568.659a1.965,1.965,0,0,1-.31.983.937.937,0,0,1-.473.274,8.223,8.223,0,0,1-1.523.077h-2.584a4.891,4.891,0,0,1-1.189-.106.689.689,0,0,1-.456-.439,4,4,0,0,1-.171-1.393v-4.307h4.386a1.379,1.379,0,0,1,.577.073.308.308,0,0,1,.121.231l.031.184h.559v-1.828h-.585l-.009.213a.216.216,0,0,1-.094.191,1.565,1.565,0,0,1-.719.084H465.02V556.76h4.615c.672,0,.823.114.846.137a3.459,3.459,0,0,1,.443,1.221l.044.166h.542v-2.465h-9.662v.613h.222c.387,0,.64.07.692.193a2.948,2.948,0,0,1,.121,1.047v11.837c0,.523-.121.639-.159.663a1.472,1.472,0,0,1-.667.16l-.209.013v.58h10.468V568.47h-.562Z" fill="#f1a300"/>
          <path id="Path_462" data-name="Path 462" d="M489.632,556.412h.222a1.236,1.236,0,0,1,.65.151c.046.028.193.171.193.831v9.788l-10.671-11.363H476.95v.6l.232-.011c.779-.033,1.261.173,1.464.634a5.133,5.133,0,0,1,.345,2.04V569a2.438,2.438,0,0,1-.146,1.158c-.027.04-.164.172-.757.172h-.222v.593h3.261v-.562l-.189-.028a2.392,2.392,0,0,1-.665-.15.384.384,0,0,1-.132-.216,2.521,2.521,0,0,1-.069-.7V558.989l11.7,12.454V557.534c0-.632.116-.845.185-.915a1.073,1.073,0,0,1,.744-.207l.215-.007v-.586h-3.281Z" fill="#f1a300"/>
          <path id="Path_463" data-name="Path 463" d="M510.112,555.311l-.05.151c-.083.249-.19.281-.225.291a2.943,2.943,0,0,1-.767.066h-9.73a2.058,2.058,0,0,1-.662-.057c-.017-.007-.107-.057-.242-.329l-.062-.122h-.612l.871,2.216h.6l-.085-.286a1.305,1.305,0,0,1-.071-.334c0-.052.008-.11.026-.117a2.332,2.332,0,0,1,.646-.049h3.443v12.53c0,.612-.1.8-.141.856-.03.038-.174.165-.776.2l-.207.014v.579h4.415v-.593h-.222a2.048,2.048,0,0,1-.618-.062.4.4,0,0,1-.209-.238,2.74,2.74,0,0,1-.105-.97V556.741h3.6a1.271,1.271,0,0,1,.439.049q.024.009.024.087a1.648,1.648,0,0,1-.033.374l-.069.276h.585l.872-2.216Z" fill="#f1a300"/>
        </g>
      </g>
    </g>
    <path id="Path_464" data-name="Path 464" d="M475.785,498.707a.259.259,0,0,0-.38.1,20.585,20.585,0,0,1-2.39,3.576,18.757,18.757,0,0,0-.065-2.777c-1.537-21.879-22.132-38.251-46.006-36.573s-41.977,20.77-40.44,42.649a35.358,35.358,0,0,0,.434,3.575c-.549.293-1.091.6-1.621.932-.655.411-1.289.853-1.9,1.32-.292.222-.008.724.293.5,5.191-3.853,11.761-4.077,17.946-3.347,3.272.386,6.508,1.025,9.745,1.629,3.524.658,7.051,1.263,10.551,2.05,7.383,1.659,14.732,3.664,22.3,4.295a30.205,30.205,0,0,0,9.233-.449,32.168,32.168,0,0,0,8.285-3.166,35.285,35.285,0,0,0,13.1-12.1q.555-.891,1.04-1.822A.289.289,0,0,0,475.785,498.707Zm-24.419,13.455,0,.017a44.629,44.629,0,0,1-5.558.026c-7.586-.429-14.966-2.377-22.341-4.071a99.743,99.743,0,0,0-15.579-2.581c1.821-11.235,12.785-18.92,24.678-17.214C444.589,490.064,453.006,500.728,451.366,512.162Z" fill="#f1a300"/>
  </g>
</svg>
