<svg xmlns="http://www.w3.org/2000/svg" width="158.901" height="108.526" viewBox="0 0 158.901 108.526">
  <g id="logo-sa-blue" transform="translate(-352.521 -273.092)">
    <g id="Group_197" data-name="Group 197">
      <path id="Path_433" data-name="Path 433" d="M361.989,348.487c-.576-.265-1.6-.646-3.113-1.155a3.244,3.244,0,0,1-1.51-.95,1.951,1.951,0,0,1-.33-1.141,2.318,2.318,0,0,1,.738-1.736,2.787,2.787,0,0,1,2.053-.726,3.508,3.508,0,0,1,1.417.273,3.47,3.47,0,0,1,1.112.785c.3.308.468.49.519.548a.528.528,0,0,0,.07.072.474.474,0,0,0,.383.107l.119-.02a.473.473,0,0,0,.367-.636l-.7-1.832a.475.475,0,0,0-.361-.3,7.411,7.411,0,0,0-1.025-.237q-3.3-.652-5.089,1.112a4.325,4.325,0,0,0-1.311,3.192,4.413,4.413,0,0,0,.511,2.032,3.863,3.863,0,0,0,1.3,1.514,12.476,12.476,0,0,0,2.468,1.083,11.109,11.109,0,0,1,2.19.931,2.721,2.721,0,0,1,.807.8,1.9,1.9,0,0,1,.265,1.035,2.311,2.311,0,0,1-.816,1.78,3.652,3.652,0,0,1-2.523.762,4.181,4.181,0,0,1-2.727-.722,3.383,3.383,0,0,1-.83-2.6.475.475,0,0,0-.474-.47h-.15a.475.475,0,0,0-.474.474v4.261a.474.474,0,0,0,.474.474h3.913c.225,0,.659-.037,1.327-.112a5.138,5.138,0,0,0,1.565-.367,3.914,3.914,0,0,0,1-.711,5.043,5.043,0,0,0,.819-1.01,4.3,4.3,0,0,0,.5-1.174,5.081,5.081,0,0,0,.154-1.257,3.983,3.983,0,0,0-.884-2.652A5.234,5.234,0,0,0,361.989,348.487Z" fill="#729ed9"/>
      <path id="Path_434" data-name="Path 434" d="M395.379,341.582h-3.862a.474.474,0,0,0-.474.474v.149a.474.474,0,0,0,.474.474h.139a.638.638,0,0,1,.352.07,3.274,3.274,0,0,1,.12,1.248v9.746a4.893,4.893,0,0,1-3.742,1.845,3.4,3.4,0,0,1-2.375-.956,4.294,4.294,0,0,1-1.028-3.259V343.32a1.391,1.391,0,0,1,.069-.545,1.072,1.072,0,0,1,.581-.1.474.474,0,0,0,.474-.474v-.149a.474.474,0,0,0-.474-.474h-3.892a.474.474,0,0,0-.474.474v.149a.474.474,0,0,0,.474.474,2.822,2.822,0,0,1,.523.046,1.9,1.9,0,0,1,.078.7v8.779a4.938,4.938,0,0,0,1.424,3.727,5.266,5.266,0,0,0,3.784,1.357,6.861,6.861,0,0,0,4.578-1.708v1.134a.474.474,0,0,0,.474.474h2.777a.474.474,0,0,0,.474-.474v-.149a.474.474,0,0,0-.474-.474,1.018,1.018,0,0,1-.468-.064.217.217,0,0,1-.1-.113,3.36,3.36,0,0,1-.047-.782V343.2a1.61,1.61,0,0,1,.044-.42,1.561,1.561,0,0,1,.594-.1.474.474,0,0,0,.447-.473v-.149A.474.474,0,0,0,395.379,341.582Z" fill="#729ed9"/>
      <path id="Path_435" data-name="Path 435" d="M428.183,341.582h-2.837a.474.474,0,0,0-.474.474v.149a.474.474,0,0,0,.474.474,1.063,1.063,0,0,1,.5.1s.094.124.094.634v9.152l-10.17-10.83a.477.477,0,0,0-.346-.149h-2.757a.474.474,0,0,0-.474.474v.149a.475.475,0,0,0,.147.343.458.458,0,0,0,.349.13c.99-.046,1.164.353,1.221.484a4.889,4.889,0,0,1,.324,1.938v9.918a3.546,3.546,0,0,1-.084.995h0a1.113,1.113,0,0,1-.567.083.474.474,0,0,0-.474.474v.149a.474.474,0,0,0,.474.474H416.4a.474.474,0,0,0,.474-.474v-.149a.474.474,0,0,0-.4-.469c-.422-.064-.552-.114-.555-.1a.33.33,0,0,1-.039-.089,2.239,2.239,0,0,1-.057-.622v-9.645l10.877,11.581a.471.471,0,0,0,.346.15.484.484,0,0,0,.174-.033.475.475,0,0,0,.3-.441V343.549c0-.6.113-.738.113-.739.019-.019.137-.118.572-.131a.474.474,0,0,0,.459-.474v-.149A.474.474,0,0,0,428.183,341.582Z" fill="#729ed9"/>
      <path id="Path_436" data-name="Path 436" d="M452.319,348.487c-.576-.265-1.6-.645-3.112-1.155a3.233,3.233,0,0,1-1.511-.951,1.946,1.946,0,0,1-.33-1.14,2.322,2.322,0,0,1,.738-1.736,2.789,2.789,0,0,1,2.054-.726,3.337,3.337,0,0,1,2.529,1.057c.295.309.468.491.519.549a.427.427,0,0,0,.069.072.473.473,0,0,0,.383.107l.12-.02a.473.473,0,0,0,.366-.636l-.7-1.832a.472.472,0,0,0-.36-.3,7.505,7.505,0,0,0-1.026-.237q-3.3-.652-5.088,1.112a4.325,4.325,0,0,0-1.311,3.192,4.41,4.41,0,0,0,.511,2.032,3.876,3.876,0,0,0,1.3,1.514,12.532,12.532,0,0,0,2.468,1.083,11.05,11.05,0,0,1,2.19.931,2.726,2.726,0,0,1,.808.8,1.9,1.9,0,0,1,.265,1.035,2.308,2.308,0,0,1-.817,1.78,3.648,3.648,0,0,1-2.522.762,4.184,4.184,0,0,1-2.728-.722,3.387,3.387,0,0,1-.83-2.6.474.474,0,0,0-.474-.47h-.149a.474.474,0,0,0-.474.474v4.261a.474.474,0,0,0,.474.474H449.6c.226,0,.66-.037,1.328-.112a5.139,5.139,0,0,0,1.564-.367,3.936,3.936,0,0,0,1-.711,5.037,5.037,0,0,0,.818-1.01,4.27,4.27,0,0,0,.5-1.174,5.009,5.009,0,0,0,.155-1.257,3.99,3.99,0,0,0-.884-2.652A5.227,5.227,0,0,0,452.319,348.487Z" fill="#729ed9"/>
      <path id="Path_437" data-name="Path 437" d="M482.076,354.234h-.149a.474.474,0,0,0-.469.4,1.822,1.822,0,0,1-.244.848.692.692,0,0,1-.35.2,8,8,0,0,1-1.462.07h-2.585a4.5,4.5,0,0,1-1.121-.1.432.432,0,0,1-.291-.293,3.655,3.655,0,0,1-.152-1.3v-4.055h4.135a3.985,3.985,0,0,1,.43.024.316.316,0,0,1,.019.07.472.472,0,0,0,.467.393h.149a.474.474,0,0,0,.474-.474v-1.383a.474.474,0,0,0-.474-.474H480.3a.49.49,0,0,0-.474.446,2.615,2.615,0,0,1-.561.041h-4.016v-5.631h4.364a2.869,2.869,0,0,1,.662.056,4.292,4.292,0,0,1,.383,1.114.474.474,0,0,0,.458.353h.15a.474.474,0,0,0,.474-.474v-2.021a.474.474,0,0,0-.474-.474h-9.219a.474.474,0,0,0-.474.474v.169a.474.474,0,0,0,.474.474,2.141,2.141,0,0,1,.463.047,2.8,2.8,0,0,1,.1.941v11.838a1.93,1.93,0,0,1-.046.451,1.228,1.228,0,0,1-.543.121.474.474,0,0,0-.447.473v.149a.474.474,0,0,0,.474.474h10.025a.474.474,0,0,0,.474-.474v-2.011A.474.474,0,0,0,482.076,354.234Z" fill="#729ed9"/>
      <path id="Path_438" data-name="Path 438" d="M511.34,341.281a.475.475,0,0,0-.392-.207H510.8a.474.474,0,0,0-.45.324.613.613,0,0,1-.058.129,2.768,2.768,0,0,1-.695.055h-9.729c-.409,0-.541-.029-.538-.023a.822.822,0,0,1-.141-.223.477.477,0,0,0-.425-.262h-.149a.474.474,0,0,0-.441.647l.7,1.772a.473.473,0,0,0,.441.3h.149a.474.474,0,0,0,.454-.609c-.02-.07-.034-.124-.043-.164.086-.007.215-.013.4-.013h3.191v12.278a1.975,1.975,0,0,1-.075.688h0a1.322,1.322,0,0,1-.607.123.474.474,0,0,0-.443.473v.149a.474.474,0,0,0,.474.474h3.972a.474.474,0,0,0,.474-.474v-.149a.474.474,0,0,0-.474-.474,1.841,1.841,0,0,1-.531-.047.24.24,0,0,1-.065-.1,2.535,2.535,0,0,1-.085-.87V343.008h3.35c.089,0,.158,0,.209.008a1.017,1.017,0,0,1-.023.189.475.475,0,0,0,.46.589h.149a.473.473,0,0,0,.441-.3l.7-1.772A.475.475,0,0,0,511.34,341.281Z" fill="#729ed9"/>
      <g id="Group_196" data-name="Group 196">
        <g id="Group_195" data-name="Group 195">
          <path id="Path_439" data-name="Path 439" d="M365.544,379.791c-.331-.694-.376-.84-.38-.846l-5.3-13.17H359.3l-5.37,13.547a2.41,2.41,0,0,1-.579,1.013,1.008,1.008,0,0,1-.607.172h-.222v.593h2.624v-.593h-.222c-.266,0-.266-.072-.266-.1a3.122,3.122,0,0,1,.213-.655l2.164-5.4h4l2.041,5.066.012.03.013.058a.585.585,0,0,0,.089.175,2.053,2.053,0,0,1,.2.68c0,.072,0,.146-.245.146h-.222v.593h3.868v-.593h-.222A1.087,1.087,0,0,1,365.544,379.791Zm-8.192-6.292,1.657-4.173,1.655,4.173Z" fill="#729ed9"/>
          <path id="Path_440" data-name="Path 440" d="M379.715,366.515a7.9,7.9,0,0,0-3.339-.521h-4.4v.593h.222c.46,0,.612.106.662.169a1.566,1.566,0,0,1,.151.892v12.136c0,.507-.243.723-.813.723h-.222v.593h4.317v-.593h-.222a1.217,1.217,0,0,1-.762-.151c-.017-.014-.161-.164-.161-1.1V366.936h.823a4.667,4.667,0,0,1,2.229.409,2.76,2.76,0,0,1,1.1,1.185,4.036,4.036,0,0,1,.4,1.827,2.774,2.774,0,0,1-.8,2.091,2.854,2.854,0,0,1-2.109.792h-.222v.59l.218,0a5.9,5.9,0,0,0,3.619-.94,3.464,3.464,0,0,0,1.376-2.98,3.9,3.9,0,0,0-.5-2.076A3.721,3.721,0,0,0,379.715,366.515Z" fill="#729ed9"/>
          <path id="Path_441" data-name="Path 441" d="M398.137,379.791c-.331-.694-.376-.84-.38-.846l-5.3-13.17h-.565l-5.37,13.547a2.41,2.41,0,0,1-.579,1.013,1.008,1.008,0,0,1-.607.172h-.222v.593h2.624v-.593h-.222c-.265,0-.265-.072-.265-.1a2.973,2.973,0,0,1,.212-.655l2.165-5.4h4l2.041,5.066.012.03.013.058a.635.635,0,0,0,.089.175,2.07,2.07,0,0,1,.2.68c0,.072,0,.146-.246.146h-.222v.593h3.868v-.593h-.222A1.087,1.087,0,0,1,398.137,379.791Zm-8.192-6.292,1.657-4.173,1.655,4.173Z" fill="#729ed9"/>
          <path id="Path_442" data-name="Path 442" d="M419.806,379.652a3.221,3.221,0,0,1-1.579.536,2.969,2.969,0,0,1-1.435-.414,9.12,9.12,0,0,1-2.183-2.4c-.963-1.334-1.563-2.207-1.791-2.607l-.908-1.4a5.612,5.612,0,0,0,1.769-1.659,4.021,4.021,0,0,0,.709-2.249,3.551,3.551,0,0,0-.407-1.758,2.922,2.922,0,0,0-1.209-1.153,4.167,4.167,0,0,0-1.531-.489c-.478-.046-1.256-.07-2.311-.07h-4.383v.59l.219,0c.277,0,.624.049.7.244a2.33,2.33,0,0,1,.134.857v11.648a2,2,0,0,1-.139.974c-.033.052-.169.175-.7.2l-.212.009v.584h4.227v-.593h-.222c-.358,0-.6-.066-.668-.186a1.709,1.709,0,0,1-.146-.854v-5.384h.972l1.181-.036,1.383,2.127.007.048.051.049a23.578,23.578,0,0,0,3.215,4.165,3.567,3.567,0,0,0,2.329.8,4.987,4.987,0,0,0,3.244-1.026l.115-.094-.184-.613Zm-12.068-12.826h.985a3.291,3.291,0,0,1,2.856,1.116,4.145,4.145,0,0,1,.822,2.435,2.765,2.765,0,0,1-.811,2.091,3.534,3.534,0,0,1-2.538.792h-1.314Z" fill="#729ed9"/>
          <path id="Path_443" data-name="Path 443" d="M433.477,365.638c-.083.248-.19.28-.226.29a2.921,2.921,0,0,1-.766.066h-9.729a2.058,2.058,0,0,1-.663-.057c-.017-.007-.106-.057-.242-.328l-.061-.123h-.613l.872,2.216h.6l-.085-.285a1.339,1.339,0,0,1-.07-.335c0-.051.008-.11.026-.116a2.236,2.236,0,0,1,.646-.05h3.443v12.53c0,.612-.1.8-.142.857-.03.038-.174.164-.776.2l-.207.013v.579H429.9v-.593h-.222a2.055,2.055,0,0,1-.619-.062.4.4,0,0,1-.208-.238,2.724,2.724,0,0,1-.106-.97V366.916h3.6a1.321,1.321,0,0,1,.44.048c.016.007.024.036.024.088a1.569,1.569,0,0,1-.034.375l-.067.275h.584l.871-2.216h-.635Z" fill="#729ed9"/>
          <path id="Path_444" data-name="Path 444" d="M455.961,380.314a2.548,2.548,0,0,1-.272-.959l-1.542-11.108a5.237,5.237,0,0,1-.057-.657.878.878,0,0,1,.963-1l.21-.01v-.582h-2.682l-5.027,11.653-5.011-11.653H439.41v.593h.222a1.581,1.581,0,0,1,.691.177c.148.072.387.308.687,1.015l-1.669,11.789a3.64,3.64,0,0,1-.111.576.62.62,0,0,1-.156.292s-.088.071-.507.071h-.222v.593h2.683v-.593h-.222c-.414,0-.448-.173-.448-.351a3.4,3.4,0,0,1,.037-.532l1.38-10.047L446.8,381.1h.391l5-11.542,1.4,9.985a4.929,4.929,0,0,1,.058.553.446.446,0,0,1-.1.324.452.452,0,0,1-.334.087l-.229-.007v.6h3.739v-.574l-.2-.018C456.134,380.473,456,380.371,455.961,380.314Z" fill="#729ed9"/>
          <path id="Path_445" data-name="Path 445" d="M471.726,378.834a1.976,1.976,0,0,1-.31.984.935.935,0,0,1-.473.273,8.218,8.218,0,0,1-1.523.077h-2.584a4.889,4.889,0,0,1-1.189-.106.689.689,0,0,1-.456-.439,4,4,0,0,1-.171-1.393v-4.307h4.386a1.379,1.379,0,0,1,.577.073.308.308,0,0,1,.121.231l.031.184h.559v-1.828h-.585l-.009.213a.215.215,0,0,1-.094.191,1.564,1.564,0,0,1-.719.084H465.02v-6.135h4.615c.672,0,.823.113.846.136a3.458,3.458,0,0,1,.443,1.221l.044.166h.542v-2.465h-9.662v.613h.222c.387,0,.64.07.692.193a2.948,2.948,0,0,1,.121,1.047v11.837c0,.523-.121.639-.159.663a1.47,1.47,0,0,1-.667.161l-.209.012v.58h10.468v-2.455h-.562Z" fill="#729ed9"/>
          <path id="Path_446" data-name="Path 446" d="M489.632,366.587h.222a1.236,1.236,0,0,1,.65.151c.046.028.193.171.193.831v9.788l-10.671-11.363H476.95v.6l.232-.011c.779-.033,1.261.173,1.464.635a5.125,5.125,0,0,1,.345,2.039v9.917a2.434,2.434,0,0,1-.146,1.158c-.027.04-.164.172-.757.172h-.222v.593h3.261v-.562l-.189-.028a2.392,2.392,0,0,1-.665-.15.384.384,0,0,1-.132-.216,2.521,2.521,0,0,1-.069-.7V369.164l11.7,12.454V367.709c0-.632.116-.845.185-.915a1.073,1.073,0,0,1,.744-.207l.215-.007v-.586h-3.281Z" fill="#729ed9"/>
          <path id="Path_447" data-name="Path 447" d="M510.112,365.486l-.05.152c-.083.248-.19.28-.225.29a2.944,2.944,0,0,1-.767.066h-9.73a2.058,2.058,0,0,1-.662-.057c-.017-.007-.107-.057-.242-.328l-.062-.123h-.612l.871,2.216h.6l-.085-.285a1.308,1.308,0,0,1-.071-.335c0-.051.008-.11.026-.116a2.25,2.25,0,0,1,.646-.05h3.443v12.53c0,.612-.1.8-.141.856s-.174.165-.776.206l-.207.013v.579h4.415v-.593h-.222a2.046,2.046,0,0,1-.618-.062.4.4,0,0,1-.209-.238,2.74,2.74,0,0,1-.105-.97V366.916h3.6a1.27,1.27,0,0,1,.439.049q.024.009.024.087a1.642,1.642,0,0,1-.033.374l-.069.276h.585l.872-2.216Z" fill="#729ed9"/>
        </g>
      </g>
    </g>
    <path id="Path_448" data-name="Path 448" d="M475.785,308.882a.259.259,0,0,0-.38.1,20.631,20.631,0,0,1-2.39,3.577,18.753,18.753,0,0,0-.065-2.777c-1.537-21.879-22.132-38.251-46.006-36.574s-41.977,20.77-40.44,42.649a35.358,35.358,0,0,0,.434,3.575c-.549.293-1.091.6-1.621.933-.655.411-1.289.853-1.9,1.319-.292.222-.008.724.293.5,5.191-3.853,11.761-4.077,17.946-3.347,3.272.387,6.508,1.025,9.745,1.629,3.524.658,7.051,1.263,10.551,2.05,7.383,1.659,14.732,3.664,22.3,4.295a30.237,30.237,0,0,0,9.233-.448,32.24,32.24,0,0,0,8.285-3.166,35.3,35.3,0,0,0,13.1-12.1q.555-.891,1.04-1.822A.289.289,0,0,0,475.785,308.882Zm-24.419,13.455,0,.017a44.623,44.623,0,0,1-5.558.026c-7.586-.429-14.966-2.377-22.341-4.071a99.743,99.743,0,0,0-15.579-2.581c1.821-11.235,12.785-18.92,24.678-17.214C444.589,300.239,453.006,310.9,451.366,322.337Z" fill="#729ed9"/>
  </g>
</svg>
