<svg xmlns="http://www.w3.org/2000/svg" xmlns:xlink="http://www.w3.org/1999/xlink" width="79.114" height="46.004" viewBox="0 0 79.114 46.004">
  <defs>
    <linearGradient id="linear-gradient" x1="0.5" x2="0.5" y2="1" gradientUnits="objectBoundingBox">
      <stop offset="0" stop-color="#f79d25"/>
      <stop offset="0.605" stop-color="#f8a42b"/>
      <stop offset="1" stop-color="#fdd555"/>
    </linearGradient>
    <linearGradient id="linear-gradient-2" x1="-1.242" y1="-1.321" x2="-1.242" y2="-0.469" gradientUnits="objectBoundingBox">
      <stop offset="0" stop-color="#fee57f"/>
      <stop offset="1" stop-color="#f27322"/>
    </linearGradient>
    <linearGradient id="linear-gradient-3" x1="0.5" x2="0.5" y2="1" gradientUnits="objectBoundingBox">
      <stop offset="0" stop-color="#fee57f"/>
      <stop offset="0.608" stop-color="#f48632"/>
      <stop offset="1" stop-color="#f27322"/>
    </linearGradient>
  </defs>
  <g id="logo-sa-icon" transform="translate(-844.411 -263)">
    <path id="Path_358" data-name="Path 358" d="M268.986,330.134a16.419,16.419,0,0,1,0,3.2,31.118,31.118,0,0,1-19.575,8.534c-11.168.5-22.137-3.835-33.247-4.769-6.824-.572-14.079-.337-20.578,1.549a30.092,30.092,0,0,1-.416-3.325c-1.313-18.682,14.151-34.985,34.531-36.417S267.673,311.452,268.986,330.134Z" transform="translate(651.985 -35.804)" fill="url(#linear-gradient)"/>
    <path id="Path_359" data-name="Path 359" d="M280.224,376.059a16.6,16.6,0,0,1-.479,2.244,19.8,19.8,0,0,1-10.342.846c-5.594-.954-10.736-3.546-16.143-5.232a28.309,28.309,0,0,0-10.376-1.434,16.374,16.374,0,0,1,.159-1.757c1.4-9.763,10.86-16.482,21.126-15.01S281.625,366.3,280.224,376.059Z" transform="translate(622.317 -71.01)" fill="url(#linear-gradient-2)"/>
    <path id="Path_376" data-name="Path 376" d="M280.224,376.059a16.6,16.6,0,0,1-.479,2.244,19.8,19.8,0,0,1-10.342.846c-5.594-.954-10.736-3.546-16.143-5.232a28.309,28.309,0,0,0-10.376-1.434,16.374,16.374,0,0,1,.159-1.757c1.4-9.763,10.86-16.482,21.126-15.01S281.625,366.3,280.224,376.059Z" transform="translate(621.905 -72.526)" fill="url(#linear-gradient-3)"/>
    <path id="Path_360" data-name="Path 360" d="M267.04,379.335a.221.221,0,0,0-.325.087,20.514,20.514,0,0,1-10.59,9.168,33.6,33.6,0,0,1-14.685,2.271c-6.478-.367-12.78-2.03-19.077-3.477-5.691-1.307-11.448-2.426-17.315-2.306a29.72,29.72,0,0,0-15.259,4.063c-.559.351-1.1.728-1.626,1.127-.25.189-.008.618.25.427,4.433-3.29,10.043-3.481,15.324-2.857,2.794.33,5.557.875,8.321,1.391,3.01.562,6.021,1.078,9.009,1.75,6.3,1.417,12.58,3.129,19.041,3.668a25.8,25.8,0,0,0,7.884-.383,27.522,27.522,0,0,0,7.074-2.7,30.129,30.129,0,0,0,11.188-10.334q.474-.76.888-1.555A.247.247,0,0,0,267.04,379.335Z" transform="translate(656.352 -85.774)" fill="#729ed9"/>
  </g>
</svg>
