<svg xmlns="http://www.w3.org/2000/svg" xmlns:xlink="http://www.w3.org/1999/xlink" width="222.484" height="46.004" viewBox="0 0 222.484 46.004"><defs><linearGradient id="a" x1="0.5" y1="-0.102" x2="0.5" y2="0.77" gradientUnits="objectBoundingBox"><stop offset="0" stop-color="#fed007"/><stop offset="1" stop-color="#f79d25"/></linearGradient><linearGradient id="b" x1="0.5" y1="-0.117" x2="0.5" y2="0.762" xlink:href="#a"/><linearGradient id="c" x1="0.5" y1="-0.116" x2="0.5" y2="0.759" xlink:href="#a"/><linearGradient id="d" x1="0.5" y1="0.073" x2="0.5" y2="0.945" xlink:href="#a"/><linearGradient id="e" x1="0.5" y1="-0.118" x2="0.5" y2="0.767" xlink:href="#a"/><linearGradient id="f" x1="0.5" y1="-0.082" x2="0.5" y2="0.775" xlink:href="#a"/><linearGradient id="g" x1="0.5" x2="0.5" y2="1" gradientUnits="objectBoundingBox"><stop offset="0" stop-color="#f79d25"/><stop offset="0.605" stop-color="#f8a42b"/><stop offset="1" stop-color="#fdd555"/></linearGradient><linearGradient id="h" x1="-1.242" y1="-1.321" x2="-1.242" y2="-0.469" gradientUnits="objectBoundingBox"><stop offset="0" stop-color="#fee57f"/><stop offset="1" stop-color="#f27322"/></linearGradient><linearGradient id="i" x1="0.5" x2="0.5" y2="1" gradientUnits="objectBoundingBox"><stop offset="0" stop-color="#fee57f"/><stop offset="0.608" stop-color="#f48632"/><stop offset="1" stop-color="#f27322"/></linearGradient></defs><g transform="translate(-844.411 -263)"><path d="M129.85,519.378c-.283-.593-.322-.718-.325-.722L125,507.409h-.482l-4.586,11.568a2.047,2.047,0,0,1-.495.865.858.858,0,0,1-.518.147h-.19v.507h2.241v-.507h-.19c-.227,0-.227-.061-.227-.09a2.689,2.689,0,0,1,.182-.559l1.848-4.607H126l1.743,4.326.01.025.012.05a.524.524,0,0,0,.075.15,1.752,1.752,0,0,1,.169.58c0,.061,0,.125-.21.125h-.19v.507h3.3v-.507h-.19A.928.928,0,0,1,129.85,519.378Zm-7-5.373,1.416-3.564,1.413,3.564Z" transform="translate(812.48 -217.867)" fill="#729ed9"/><path d="M169.143,508.347a6.742,6.742,0,0,0-2.85-.445h-3.76v.507h.19c.393,0,.523.091.565.144a1.338,1.338,0,0,1,.13.762v10.363c0,.433-.208.617-.694.617h-.19v.507h3.686V520.3h-.19a1.039,1.039,0,0,1-.651-.129c-.014-.012-.137-.14-.137-.938V508.707h.7a4,4,0,0,1,1.9.349,2.355,2.355,0,0,1,.94,1.012,3.444,3.444,0,0,1,.341,1.56,2.372,2.372,0,0,1-.687,1.786,2.439,2.439,0,0,1-1.8.676h-.19v.5l.186,0a5.041,5.041,0,0,0,3.09-.8,2.96,2.96,0,0,0,1.174-2.545,3.324,3.324,0,0,0-.424-1.773A3.183,3.183,0,0,0,169.143,508.347Z" transform="translate(785.287 -218.173)" fill="#729ed9"/><path d="M203.245,519.378c-.283-.593-.322-.718-.325-.722l-4.526-11.246h-.482l-4.585,11.568a2.051,2.051,0,0,1-.495.865.859.859,0,0,1-.518.147h-.19v.507h2.241v-.507h-.19c-.227,0-.227-.061-.227-.09a2.623,2.623,0,0,1,.182-.559l1.848-4.607H199.4l1.743,4.326.01.025c0,.011.006.027.012.05a.524.524,0,0,0,.075.15,1.747,1.747,0,0,1,.17.58c0,.061,0,.125-.21.125h-.19v.507h3.3v-.507h-.19A.927.927,0,0,1,203.245,519.378Zm-7-5.373,1.415-3.564,1.413,3.564Z" transform="translate(766.917 -217.867)" fill="#729ed9"/><path d="M248.912,519.565a2.756,2.756,0,0,1-1.348.458,2.535,2.535,0,0,1-1.225-.354,7.772,7.772,0,0,1-1.864-2.048c-.823-1.139-1.335-1.884-1.529-2.226l-.776-1.192a4.79,4.79,0,0,0,1.511-1.417,3.43,3.43,0,0,0,.606-1.921,3.033,3.033,0,0,0-.347-1.5,2.5,2.5,0,0,0-1.033-.985,3.544,3.544,0,0,0-1.307-.417c-.408-.04-1.072-.061-1.974-.061h-3.743v.5l.187,0c.237,0,.534.042.6.208a2,2,0,0,1,.114.732V519.3a1.711,1.711,0,0,1-.118.832c-.028.044-.144.149-.6.168l-.182.008v.5h3.609V520.3h-.19c-.306,0-.508-.056-.57-.159a1.47,1.47,0,0,1-.124-.73v-4.6h.83l1.009-.031,1.181,1.816.006.041.044.042a20.05,20.05,0,0,0,2.745,3.556,3.043,3.043,0,0,0,1.989.686,4.253,4.253,0,0,0,2.77-.876l.1-.08-.157-.524Zm-10.3-10.952h.841a2.812,2.812,0,0,1,2.439.953,3.537,3.537,0,0,1,.7,2.079,2.362,2.362,0,0,1-.692,1.785,3.02,3.02,0,0,1-2.167.677h-1.122Z" transform="translate(739.752 -218.173)" fill="#729ed9"/><path d="M283.834,506.889c-.071.212-.162.239-.193.248a2.524,2.524,0,0,1-.654.056h-8.308a1.76,1.76,0,0,1-.566-.048c-.014-.006-.091-.048-.206-.28l-.052-.105h-.523l.744,1.892h.511l-.072-.243a1.119,1.119,0,0,1-.06-.286c0-.044.007-.093.022-.1a1.932,1.932,0,0,1,.551-.042h2.94v10.7c0,.523-.085.686-.121.732s-.149.14-.663.175l-.177.012v.495h3.771v-.507h-.19a1.739,1.739,0,0,1-.529-.053.342.342,0,0,1-.178-.2,2.33,2.33,0,0,1-.09-.828V507.98h3.075a1.127,1.127,0,0,1,.376.041c.014.006.021.031.021.075a1.4,1.4,0,0,1-.028.32l-.058.235h.5l.744-1.892h-.542Z" transform="translate(716.504 -217.464)" fill="#729ed9"/><path d="M327.031,520.131a2.188,2.188,0,0,1-.232-.819l-1.316-9.484a4.484,4.484,0,0,1-.049-.562.749.749,0,0,1,.822-.857l.18-.009v-.5h-2.291l-4.292,9.951-4.279-9.951H312.9v.507h.19a1.353,1.353,0,0,1,.59.151c.127.062.33.263.587.866l-1.425,10.067a3.109,3.109,0,0,1-.1.492.528.528,0,0,1-.133.249s-.075.06-.433.06h-.19v.507h2.292V520.3h-.19c-.353,0-.383-.148-.383-.3a2.866,2.866,0,0,1,.032-.454l1.178-8.579,4.294,9.84h.333l4.269-9.856,1.192,8.526a4.359,4.359,0,0,1,.049.473.378.378,0,0,1-.082.276.386.386,0,0,1-.285.074l-.2-.006v.513h3.193v-.49l-.173-.016C327.179,520.266,327.068,520.179,327.031,520.131Z" transform="translate(692.505 -218.173)" fill="#729ed9"/><path d="M373.349,518.866a1.671,1.671,0,0,1-.265.84.8.8,0,0,1-.4.234,7.007,7.007,0,0,1-1.3.066h-2.207a4.145,4.145,0,0,1-1.015-.091.584.584,0,0,1-.389-.374,3.412,3.412,0,0,1-.147-1.19v-3.677h3.746a1.168,1.168,0,0,1,.493.062.262.262,0,0,1,.1.2l.027.158h.476v-1.561h-.5l-.007.182a.184.184,0,0,1-.08.163c-.017.012-.128.072-.614.072h-3.644v-5.239h3.941c.573,0,.7.1.722.116a2.953,2.953,0,0,1,.378,1.043l.038.141h.463v-2.1h-8.25v.524h.19c.331,0,.546.06.59.165a2.5,2.5,0,0,1,.1.894v10.108c0,.446-.1.545-.137.565a1.257,1.257,0,0,1-.57.137l-.178.01v.5h8.939v-2.1h-.48Z" transform="translate(659.65 -218.173)" fill="#729ed9"/><path d="M409.75,508.409h.19a1.052,1.052,0,0,1,.555.129c.039.024.165.146.165.71V517.6l-9.112-9.7H398.92v.516l.2-.009c.666-.029,1.077.147,1.25.542a4.383,4.383,0,0,1,.294,1.741v8.468a2.092,2.092,0,0,1-.124.989c-.024.034-.14.147-.647.147h-.19v.507h2.785v-.48l-.162-.024a2.016,2.016,0,0,1-.568-.128.329.329,0,0,1-.113-.184,2.162,2.162,0,0,1-.059-.6V510.61l9.988,10.634V509.367c0-.539.1-.721.158-.781a.922.922,0,0,1,.635-.177l.184-.006v-.5h-2.8Z" transform="translate(638.539 -218.173)" fill="#729ed9"/><path d="M456.331,506.759l-.043.13c-.071.212-.162.239-.192.248a2.53,2.53,0,0,1-.654.056h-8.308a1.767,1.767,0,0,1-.566-.048c-.014-.006-.091-.048-.207-.281l-.052-.1h-.523l.744,1.892h.511l-.072-.243a1.117,1.117,0,0,1-.06-.286c0-.044.007-.093.022-.1a1.94,1.94,0,0,1,.552-.042h2.94v10.7c0,.523-.084.686-.121.731s-.149.141-.662.175l-.177.012v.495h3.77v-.507h-.19a1.732,1.732,0,0,1-.528-.053.343.343,0,0,1-.178-.2,2.338,2.338,0,0,1-.09-.829V507.98h3.076a1.11,1.11,0,0,1,.375.042c.013.005.02.03.02.074a1.394,1.394,0,0,1-.028.32l-.058.235h.5l.744-1.892Z" transform="translate(609.445 -217.464)" fill="#729ed9"/><path d="M130.117,458.525c-.492-.226-1.368-.551-2.658-.986a2.77,2.77,0,0,1-1.289-.812,1.664,1.664,0,0,1-.282-.974,1.982,1.982,0,0,1,.63-1.483,2.381,2.381,0,0,1,1.753-.62,2.847,2.847,0,0,1,2.16.9q.377.394.443.468a.413.413,0,0,0,.059.062.4.4,0,0,0,.327.091l.1-.017a.405.405,0,0,0,.313-.543l-.6-1.564a.405.405,0,0,0-.308-.255,6.429,6.429,0,0,0-.876-.2,4.571,4.571,0,0,0-4.345.949,3.694,3.694,0,0,0-1.119,2.725,3.772,3.772,0,0,0,.436,1.736,3.3,3.3,0,0,0,1.114,1.292,10.616,10.616,0,0,0,2.107.925,9.445,9.445,0,0,1,1.87.795,2.321,2.321,0,0,1,.69.679,1.621,1.621,0,0,1,.226.884,1.972,1.972,0,0,1-.7,1.52,3.118,3.118,0,0,1-2.154.651,3.572,3.572,0,0,1-2.329-.617,2.888,2.888,0,0,1-.709-2.221.405.405,0,0,0-.4-.4h-.128a.4.4,0,0,0-.4.4v3.638a.4.4,0,0,0,.4.4H127.8c.193,0,.563-.031,1.133-.1a4.374,4.374,0,0,0,1.336-.313,3.373,3.373,0,0,0,.857-.607,4.312,4.312,0,0,0,.7-.863,3.667,3.667,0,0,0,.43-1,4.312,4.312,0,0,0,.132-1.073,3.4,3.4,0,0,0-.755-2.265A4.471,4.471,0,0,0,130.117,458.525Z" transform="translate(809.177 -183.745)" fill="url(#a)"/><path d="M195.511,452.931h-3.3a.4.4,0,0,0-.4.4v.127a.4.4,0,0,0,.4.4h.119a.545.545,0,0,1,.3.06,2.792,2.792,0,0,1,.1,1.066v8.322a4.177,4.177,0,0,1-3.195,1.575,2.9,2.9,0,0,1-2.028-.816,3.665,3.665,0,0,1-.878-2.783v-6.876a1.2,1.2,0,0,1,.059-.466.916.916,0,0,1,.5-.082.4.4,0,0,0,.4-.4v-.127a.4.4,0,0,0-.4-.4h-3.324a.4.4,0,0,0-.4.4v.127a.4.4,0,0,0,.4.4,2.462,2.462,0,0,1,.447.039,1.607,1.607,0,0,1,.067.6v7.5a4.218,4.218,0,0,0,1.216,3.182,4.494,4.494,0,0,0,3.231,1.158,5.858,5.858,0,0,0,3.909-1.458v.968a.4.4,0,0,0,.4.4h2.372a.4.4,0,0,0,.4-.4v-.127a.4.4,0,0,0-.4-.4.864.864,0,0,1-.4-.055.179.179,0,0,1-.082-.1,2.845,2.845,0,0,1-.041-.668V454.313a1.4,1.4,0,0,1,.038-.358,1.342,1.342,0,0,1,.507-.087.4.4,0,0,0,.382-.4v-.127A.4.4,0,0,0,195.511,452.931Z" transform="translate(772.295 -184.047)" fill="url(#b)"/><path d="M266.75,452.931h-2.422a.4.4,0,0,0-.4.4v.127a.4.4,0,0,0,.4.4.9.9,0,0,1,.424.082s.081.106.081.542v7.815l-8.685-9.248a.406.406,0,0,0-.3-.128H253.5a.4.4,0,0,0-.4.4v.127a.4.4,0,0,0,.125.292.392.392,0,0,0,.3.112c.846-.04.995.3,1.044.413a4.18,4.18,0,0,1,.276,1.654V464.4a3.017,3.017,0,0,1-.072.85h0a.966.966,0,0,1-.485.07.4.4,0,0,0-.4.4v.127a.4.4,0,0,0,.4.4h2.406a.4.4,0,0,0,.4-.4v-.127a.4.4,0,0,0-.344-.4c-.361-.054-.472-.1-.474-.089a.269.269,0,0,1-.033-.076,1.89,1.89,0,0,1-.049-.531V456.4l9.288,9.89a.4.4,0,0,0,.7-.277v-11.4c0-.515.1-.63.1-.631.016-.017.117-.1.489-.112a.405.405,0,0,0,.392-.4v-.127A.4.4,0,0,0,266.75,452.931Z" transform="translate(729.067 -184.047)" fill="url(#c)"/><path d="M333.524,458.524c-.492-.226-1.368-.551-2.658-.986a2.767,2.767,0,0,1-1.29-.812,1.664,1.664,0,0,1-.282-.974,1.983,1.983,0,0,1,.63-1.483,2.382,2.382,0,0,1,1.753-.62,2.847,2.847,0,0,1,2.16.9q.378.395.443.468a.38.38,0,0,0,.059.062.4.4,0,0,0,.327.091l.1-.017a.4.4,0,0,0,.313-.543l-.6-1.564a.405.405,0,0,0-.308-.255,6.448,6.448,0,0,0-.876-.2,4.567,4.567,0,0,0-4.345.949,3.691,3.691,0,0,0-1.119,2.725,3.767,3.767,0,0,0,.436,1.735,3.3,3.3,0,0,0,1.114,1.293,10.673,10.673,0,0,0,2.107.925,9.458,9.458,0,0,1,1.87.795,2.326,2.326,0,0,1,.69.679,1.624,1.624,0,0,1,.226.884,1.971,1.971,0,0,1-.7,1.52,3.119,3.119,0,0,1-2.154.651,3.574,3.574,0,0,1-2.329-.617,2.89,2.89,0,0,1-.708-2.221.4.4,0,0,0-.4-.4h-.127a.4.4,0,0,0-.4.4v3.638a.4.4,0,0,0,.4.4h3.34c.193,0,.564-.031,1.134-.1a4.377,4.377,0,0,0,1.336-.313,3.356,3.356,0,0,0,.857-.607,4.3,4.3,0,0,0,.7-.863,3.677,3.677,0,0,0,.429-1,4.3,4.3,0,0,0,.132-1.073,3.4,3.4,0,0,0-.755-2.265A4.472,4.472,0,0,0,333.524,458.524Z" transform="translate(682.903 -183.745)" fill="url(#d)"/><path d="M395.787,463.735h-.127a.4.4,0,0,0-.4.344,1.572,1.572,0,0,1-.209.725.594.594,0,0,1-.3.172,6.832,6.832,0,0,1-1.249.06H391.3a3.821,3.821,0,0,1-.958-.083.367.367,0,0,1-.248-.25,3.109,3.109,0,0,1-.13-1.107v-3.463h3.531a3.46,3.46,0,0,1,.367.021.259.259,0,0,1,.016.06.4.4,0,0,0,.4.336h.127a.4.4,0,0,0,.4-.4v-1.182a.4.4,0,0,0-.4-.4h-.127a.418.418,0,0,0-.4.381,2.219,2.219,0,0,1-.48.036h-3.429v-4.809h3.726a2.354,2.354,0,0,1,.565.049,3.614,3.614,0,0,1,.328.951.4.4,0,0,0,.391.3h.128a.4.4,0,0,0,.4-.4v-1.726a.4.4,0,0,0-.4-.4h-7.871a.4.4,0,0,0-.4.4v.144a.4.4,0,0,0,.4.4,1.883,1.883,0,0,1,.4.04,2.4,2.4,0,0,1,.085.8v10.108a1.664,1.664,0,0,1-.039.386,1.048,1.048,0,0,1-.464.1.4.4,0,0,0-.381.4v.127a.4.4,0,0,0,.4.4h8.56a.4.4,0,0,0,.4-.4V464.14A.4.4,0,0,0,395.787,463.735Z" transform="translate(646.049 -184.047)" fill="url(#e)"/><path d="M457.908,451.965a.4.4,0,0,0-.334-.177h-.127a.405.405,0,0,0-.384.276.536.536,0,0,1-.049.11,2.324,2.324,0,0,1-.593.047h-8.308c-.349,0-.462-.024-.459-.019a.7.7,0,0,1-.121-.19.405.405,0,0,0-.362-.224h-.127a.4.4,0,0,0-.377.553l.6,1.513a.4.4,0,0,0,.377.257h.127a.4.4,0,0,0,.388-.52c-.018-.06-.029-.105-.036-.14.073-.006.183-.011.344-.011h2.725v10.485a1.649,1.649,0,0,1-.064.587h0a1.128,1.128,0,0,1-.519.105.4.4,0,0,0-.378.4v.127a.4.4,0,0,0,.405.4h3.391a.4.4,0,0,0,.4-.4v-.127a.4.4,0,0,0-.4-.4,1.6,1.6,0,0,1-.454-.039.218.218,0,0,1-.056-.088,2.173,2.173,0,0,1-.072-.742V453.439H456.3c.076,0,.134,0,.178.007a.9.9,0,0,1-.019.162.4.4,0,0,0,.393.5h.127a.405.405,0,0,0,.377-.257l.595-1.513A.4.4,0,0,0,457.908,451.965Z" transform="translate(608.916 -183.338)" fill="url(#f)"/><path d="M268.986,330.134a16.419,16.419,0,0,1,0,3.2,31.118,31.118,0,0,1-19.575,8.534c-11.168.5-22.137-3.835-33.247-4.769-6.824-.572-14.079-.337-20.578,1.549a30.092,30.092,0,0,1-.416-3.325c-1.313-18.682,14.151-34.985,34.531-36.417S267.673,311.452,268.986,330.134Z" transform="translate(651.985 -35.804)" fill="url(#g)"/><path d="M280.224,376.059a16.6,16.6,0,0,1-.479,2.244,19.8,19.8,0,0,1-10.342.846c-5.594-.954-10.736-3.546-16.143-5.232a28.309,28.309,0,0,0-10.376-1.434,16.374,16.374,0,0,1,.159-1.757c1.4-9.763,10.86-16.482,21.126-15.01S281.625,366.3,280.224,376.059Z" transform="translate(622.317 -71.01)" fill="url(#h)"/><path d="M280.224,376.059a16.6,16.6,0,0,1-.479,2.244,19.8,19.8,0,0,1-10.342.846c-5.594-.954-10.736-3.546-16.143-5.232a28.309,28.309,0,0,0-10.376-1.434,16.374,16.374,0,0,1,.159-1.757c1.4-9.763,10.86-16.482,21.126-15.01S281.625,366.3,280.224,376.059Z" transform="translate(621.905 -72.526)" fill="url(#i)"/><path d="M267.04,379.335a.221.221,0,0,0-.325.087,20.514,20.514,0,0,1-10.59,9.168,33.6,33.6,0,0,1-14.685,2.271c-6.478-.367-12.78-2.03-19.077-3.477-5.691-1.307-11.448-2.426-17.315-2.306a29.72,29.72,0,0,0-15.259,4.063c-.559.351-1.1.728-1.626,1.127-.25.189-.008.618.25.427,4.433-3.29,10.043-3.481,15.324-2.857,2.794.33,5.557.875,8.321,1.391,3.01.562,6.021,1.078,9.009,1.75,6.3,1.417,12.58,3.129,19.041,3.668a25.8,25.8,0,0,0,7.884-.383,27.522,27.522,0,0,0,7.074-2.7,30.129,30.129,0,0,0,11.188-10.334q.474-.76.888-1.555A.247.247,0,0,0,267.04,379.335Z" transform="translate(656.352 -85.774)" fill="#729ed9"/></g></svg>