<svg xmlns="http://www.w3.org/2000/svg" width="158.901" height="108.526" viewBox="0 0 158.901 108.526">
  <g id="Group_190" data-name="Group 190" transform="translate(-59.164 -83.667)">
    <g id="Group_189" data-name="Group 189">
      <path id="Path_401" data-name="Path 401" d="M68.632,159.061c-.576-.265-1.6-.645-3.113-1.154a3.242,3.242,0,0,1-1.51-.951,1.948,1.948,0,0,1-.33-1.14,2.325,2.325,0,0,1,.738-1.737,2.791,2.791,0,0,1,2.053-.726A3.333,3.333,0,0,1,69,154.411q.441.462.518.548a.484.484,0,0,0,.07.073.474.474,0,0,0,.383.107l.119-.02a.473.473,0,0,0,.367-.636l-.7-1.832a.472.472,0,0,0-.361-.3,7.414,7.414,0,0,0-1.025-.237q-3.3-.652-5.089,1.111a4.328,4.328,0,0,0-1.311,3.192,4.406,4.406,0,0,0,.512,2.033,3.857,3.857,0,0,0,1.3,1.513,12.465,12.465,0,0,0,2.468,1.084,11.062,11.062,0,0,1,2.19.93,2.724,2.724,0,0,1,.807.8,1.9,1.9,0,0,1,.265,1.034,2.312,2.312,0,0,1-.816,1.781,3.656,3.656,0,0,1-2.522.761,4.179,4.179,0,0,1-2.728-.722,3.383,3.383,0,0,1-.83-2.6.474.474,0,0,0-.474-.47H62a.474.474,0,0,0-.474.474v4.26a.474.474,0,0,0,.474.474h3.913c.225,0,.659-.036,1.327-.112a5.114,5.114,0,0,0,1.565-.366,3.939,3.939,0,0,0,1-.711,5.048,5.048,0,0,0,.819-1.011,4.288,4.288,0,0,0,.5-1.174,5.066,5.066,0,0,0,.154-1.256,3.986,3.986,0,0,0-.884-2.653A5.246,5.246,0,0,0,68.632,159.061Z" fill="#fff"/>
      <path id="Path_402" data-name="Path 402" d="M102.022,152.156H98.16a.474.474,0,0,0-.474.474v.15a.474.474,0,0,0,.474.474H98.3a.641.641,0,0,1,.352.069,3.28,3.28,0,0,1,.12,1.248v9.747a4.891,4.891,0,0,1-3.742,1.844,3.4,3.4,0,0,1-2.375-.955,4.3,4.3,0,0,1-1.028-3.259v-8.054a1.391,1.391,0,0,1,.069-.545,1.08,1.08,0,0,1,.581-.1.474.474,0,0,0,.474-.474v-.15a.474.474,0,0,0-.474-.474H88.384a.474.474,0,0,0-.474.474v.15a.474.474,0,0,0,.474.474,3.055,3.055,0,0,1,.523.045,1.879,1.879,0,0,1,.078.705v8.78a4.938,4.938,0,0,0,1.424,3.727,5.265,5.265,0,0,0,3.784,1.356,6.861,6.861,0,0,0,4.578-1.707v1.133a.474.474,0,0,0,.474.474h2.777a.474.474,0,0,0,.474-.474v-.149a.474.474,0,0,0-.474-.474,1,1,0,0,1-.468-.064.212.212,0,0,1-.1-.112,3.365,3.365,0,0,1-.047-.783V153.774a1.608,1.608,0,0,1,.044-.419,1.536,1.536,0,0,1,.594-.1.474.474,0,0,0,.447-.473v-.15A.474.474,0,0,0,102.022,152.156Z" fill="#fff"/>
      <path id="Path_403" data-name="Path 403" d="M134.826,152.156h-2.837a.475.475,0,0,0-.474.474v.15a.475.475,0,0,0,.474.474,1.06,1.06,0,0,1,.5.1s.094.124.094.634v9.152l-10.17-10.83a.475.475,0,0,0-.345-.15h-2.758a.474.474,0,0,0-.474.474v.15a.471.471,0,0,0,.147.342.46.46,0,0,0,.349.131c.99-.047,1.164.353,1.222.484a4.9,4.9,0,0,1,.323,1.937v9.918a3.536,3.536,0,0,1-.084,1h0a1.113,1.113,0,0,1-.567.083.474.474,0,0,0-.474.474v.149a.474.474,0,0,0,.474.474h2.817a.474.474,0,0,0,.474-.474v-.149a.473.473,0,0,0-.4-.468c-.423-.064-.553-.114-.556-.1a.347.347,0,0,1-.039-.089,2.222,2.222,0,0,1-.057-.621v-9.646L133.336,167.8a.476.476,0,0,0,.346.15.464.464,0,0,0,.174-.034.473.473,0,0,0,.3-.44v-13.35c0-.6.113-.738.113-.738.019-.02.137-.118.572-.132a.473.473,0,0,0,.459-.473v-.15A.474.474,0,0,0,134.826,152.156Z" fill="#fff"/>
      <path id="Path_404" data-name="Path 404" d="M158.962,159.061c-.576-.264-1.6-.645-3.112-1.154a3.23,3.23,0,0,1-1.51-.951,1.946,1.946,0,0,1-.33-1.14,2.324,2.324,0,0,1,.737-1.737,2.793,2.793,0,0,1,2.054-.726,3.333,3.333,0,0,1,2.529,1.058q.442.462.519.548a.433.433,0,0,0,.069.073.473.473,0,0,0,.383.107l.12-.02a.473.473,0,0,0,.366-.636l-.7-1.832a.473.473,0,0,0-.361-.3,7.462,7.462,0,0,0-1.025-.237q-3.306-.654-5.089,1.111a4.325,4.325,0,0,0-1.311,3.192,4.414,4.414,0,0,0,.511,2.033,3.859,3.859,0,0,0,1.305,1.513,12.478,12.478,0,0,0,2.467,1.084,11.063,11.063,0,0,1,2.19.93,2.716,2.716,0,0,1,.808.8,1.9,1.9,0,0,1,.265,1.034,2.312,2.312,0,0,1-.816,1.781,3.657,3.657,0,0,1-2.523.761,4.179,4.179,0,0,1-2.728-.722,3.383,3.383,0,0,1-.83-2.6.474.474,0,0,0-.474-.47h-.149a.474.474,0,0,0-.474.474v4.26a.474.474,0,0,0,.474.474h3.912c.226,0,.66-.036,1.328-.112a5.107,5.107,0,0,0,1.564-.366,3.961,3.961,0,0,0,1-.711,5.055,5.055,0,0,0,.819-1.011,4.279,4.279,0,0,0,.5-1.173,5.022,5.022,0,0,0,.155-1.257,3.993,3.993,0,0,0-.884-2.653A5.24,5.24,0,0,0,158.962,159.061Z" fill="#fff"/>
      <path id="Path_405" data-name="Path 405" d="M188.719,164.808h-.149a.476.476,0,0,0-.469.4,1.825,1.825,0,0,1-.244.849.694.694,0,0,1-.35.2,7.822,7.822,0,0,1-1.462.071H183.46a4.424,4.424,0,0,1-1.121-.1.428.428,0,0,1-.29-.293,3.611,3.611,0,0,1-.153-1.3V160.59h4.135a3.77,3.77,0,0,1,.43.025.3.3,0,0,1,.019.07.473.473,0,0,0,.467.393h.149a.474.474,0,0,0,.474-.474V159.22a.474.474,0,0,0-.474-.474h-.149a.491.491,0,0,0-.474.446,2.579,2.579,0,0,1-.561.042H181.9V153.6h4.364a2.736,2.736,0,0,1,.662.057,4.27,4.27,0,0,1,.383,1.114.473.473,0,0,0,.458.352h.15a.474.474,0,0,0,.474-.474V152.63a.474.474,0,0,0-.474-.474H178.7a.474.474,0,0,0-.474.474v.169a.474.474,0,0,0,.474.474,2.212,2.212,0,0,1,.462.047,2.818,2.818,0,0,1,.1.942V166.1a1.934,1.934,0,0,1-.046.451,1.214,1.214,0,0,1-.543.12.474.474,0,0,0-.446.473v.149a.474.474,0,0,0,.474.474h10.024a.474.474,0,0,0,.474-.474v-2.011A.474.474,0,0,0,188.719,164.808Z" fill="#fff"/>
      <path id="Path_406" data-name="Path 406" d="M217.983,151.856a.474.474,0,0,0-.392-.208h-.149a.476.476,0,0,0-.45.324.742.742,0,0,1-.057.129,2.731,2.731,0,0,1-.7.055H206.51c-.409,0-.541-.029-.538-.022a.869.869,0,0,1-.141-.223.476.476,0,0,0-.424-.263h-.15a.476.476,0,0,0-.441.648l.7,1.772a.475.475,0,0,0,.441.3h.149a.475.475,0,0,0,.455-.61c-.021-.07-.035-.123-.043-.164.085-.007.214-.013.4-.013h3.191v12.279a1.93,1.93,0,0,1-.075.687h0a1.288,1.288,0,0,1-.607.123.475.475,0,0,0-.443.473v.149a.474.474,0,0,0,.474.474h3.972a.474.474,0,0,0,.474-.474v-.149a.474.474,0,0,0-.474-.474,1.868,1.868,0,0,1-.531-.046.251.251,0,0,1-.065-.1,2.526,2.526,0,0,1-.085-.869v-12.07h3.35c.089,0,.158,0,.209.008a1.033,1.033,0,0,1-.023.19.476.476,0,0,0,.46.589h.149a.474.474,0,0,0,.441-.3l.7-1.772A.475.475,0,0,0,217.983,151.856Z" fill="#fff"/>
      <g id="Group_188" data-name="Group 188">
        <g id="Group_187" data-name="Group 187">
          <path id="Path_407" data-name="Path 407" d="M72.187,190.366c-.331-.694-.376-.841-.38-.846l-5.3-13.171h-.565L60.572,189.9a2.41,2.41,0,0,1-.579,1.013,1.009,1.009,0,0,1-.607.173h-.222v.593h2.624v-.593h-.222c-.266,0-.266-.072-.266-.106a3.172,3.172,0,0,1,.213-.655l2.164-5.4h4l2.041,5.067.012.029.013.058a.629.629,0,0,0,.089.176,2.067,2.067,0,0,1,.2.679c0,.072,0,.147-.246.147h-.222v.593h3.868v-.593h-.222A1.087,1.087,0,0,1,72.187,190.366Zm-8.192-6.292,1.657-4.173,1.655,4.173Z" fill="#fff"/>
          <path id="Path_408" data-name="Path 408" d="M86.358,177.089a7.912,7.912,0,0,0-3.339-.521h-4.4v.593h.222c.461,0,.612.106.662.169a1.566,1.566,0,0,1,.152.893v12.136c0,.506-.244.723-.814.723h-.222v.593h4.317v-.593h-.222a1.213,1.213,0,0,1-.762-.152c-.017-.014-.161-.164-.161-1.1V177.51h.823a4.679,4.679,0,0,1,2.229.409,2.768,2.768,0,0,1,1.1,1.186,4.031,4.031,0,0,1,.4,1.826,2.775,2.775,0,0,1-.805,2.092,2.854,2.854,0,0,1-2.109.792h-.222v.59l.219,0a5.9,5.9,0,0,0,3.618-.94,3.467,3.467,0,0,0,1.376-2.981,3.89,3.89,0,0,0-.5-2.076A3.728,3.728,0,0,0,86.358,177.089Z" fill="#fff"/>
          <path id="Path_409" data-name="Path 409" d="M104.78,190.366c-.331-.694-.376-.841-.38-.846l-5.3-13.171h-.565L93.165,189.9a2.4,2.4,0,0,1-.579,1.013,1.009,1.009,0,0,1-.607.173h-.222v.593h2.625v-.593h-.223c-.265,0-.265-.072-.265-.106a3.083,3.083,0,0,1,.213-.655l2.164-5.4h4l2.041,5.067.012.029.014.058a.6.6,0,0,0,.088.176,2.068,2.068,0,0,1,.2.679c0,.072,0,.147-.246.147h-.222v.593h3.868v-.593h-.222A1.087,1.087,0,0,1,104.78,190.366Zm-8.192-6.292,1.658-4.173,1.654,4.173Z" fill="#fff"/>
          <path id="Path_410" data-name="Path 410" d="M126.449,190.227a3.221,3.221,0,0,1-1.579.536,2.971,2.971,0,0,1-1.435-.415,9.1,9.1,0,0,1-2.183-2.4c-.963-1.334-1.563-2.207-1.79-2.607l-.909-1.4a5.612,5.612,0,0,0,1.769-1.659,4.022,4.022,0,0,0,.709-2.25,3.554,3.554,0,0,0-.407-1.758,2.935,2.935,0,0,0-1.209-1.153,4.146,4.146,0,0,0-1.531-.488c-.478-.047-1.255-.071-2.311-.071H111.19v.59l.219,0c.277,0,.625.049.7.244a2.337,2.337,0,0,1,.134.858v11.648a2,2,0,0,1-.139.974c-.033.051-.169.174-.7.2l-.213.009v.584h4.227v-.593h-.222c-.358,0-.6-.066-.668-.186a1.711,1.711,0,0,1-.146-.855v-5.383h.972l1.181-.036,1.383,2.127.007.048.051.049a23.554,23.554,0,0,0,3.215,4.164,3.563,3.563,0,0,0,2.33.8,4.983,4.983,0,0,0,3.243-1.025l.115-.094-.184-.613ZM114.381,177.4h.985a3.291,3.291,0,0,1,2.856,1.117,4.142,4.142,0,0,1,.822,2.434,2.763,2.763,0,0,1-.811,2.091,3.534,3.534,0,0,1-2.538.793h-1.314Z" fill="#fff"/>
          <path id="Path_411" data-name="Path 411" d="M140.12,176.212c-.083.249-.19.28-.225.291a2.959,2.959,0,0,1-.767.065H129.4a2.081,2.081,0,0,1-.663-.056c-.017-.008-.106-.057-.242-.328l-.061-.124h-.613l.872,2.216h.6l-.085-.285a1.323,1.323,0,0,1-.07-.335c0-.051.008-.109.026-.116a2.238,2.238,0,0,1,.646-.05h3.443v12.53c0,.612-.1.8-.142.857-.03.038-.174.165-.776.205l-.207.014v.579h4.416v-.593h-.222a2.06,2.06,0,0,1-.619-.062.405.405,0,0,1-.208-.238,2.731,2.731,0,0,1-.106-.971V177.49h3.6a1.306,1.306,0,0,1,.44.049c.016.006.024.036.024.087a1.586,1.586,0,0,1-.034.376l-.067.274h.584l.871-2.216h-.635Z" fill="#fff"/>
          <path id="Path_412" data-name="Path 412" d="M162.6,190.889a2.549,2.549,0,0,1-.272-.96l-1.541-11.107a5.115,5.115,0,0,1-.058-.657.877.877,0,0,1,.963-1l.21-.01v-.583h-2.682L154.2,188.222l-5.011-11.654h-3.133v.593h.222a1.591,1.591,0,0,1,.691.177c.148.073.387.308.688,1.015l-1.67,11.79a3.527,3.527,0,0,1-.111.576.622.622,0,0,1-.156.292s-.088.071-.507.071h-.222v.593h2.683v-.593h-.222c-.413,0-.448-.174-.448-.351a3.39,3.39,0,0,1,.037-.532l1.38-10.047,5.028,11.523h.391l5-11.543,1.4,9.985a4.955,4.955,0,0,1,.058.554.443.443,0,0,1-.1.324.455.455,0,0,1-.334.087l-.229-.007v.6h3.739V191.1l-.2-.018C162.777,191.047,162.647,190.946,162.6,190.889Z" fill="#fff"/>
          <path id="Path_413" data-name="Path 413" d="M178.369,189.409a1.965,1.965,0,0,1-.31.983.944.944,0,0,1-.473.274,8.218,8.218,0,0,1-1.523.077h-2.584a4.832,4.832,0,0,1-1.189-.107.682.682,0,0,1-.455-.438,4,4,0,0,1-.172-1.393V184.5h4.387a1.352,1.352,0,0,1,.576.073.308.308,0,0,1,.121.231l.032.184h.558v-1.828h-.585l-.009.213a.212.212,0,0,1-.094.19c-.02.015-.15.085-.719.085h-4.267V177.51h4.616c.671,0,.822.113.845.136a3.46,3.46,0,0,1,.443,1.222l.044.165h.542v-2.465h-9.662v.613h.222c.387,0,.64.071.692.193a2.944,2.944,0,0,1,.122,1.048v11.837c0,.523-.122.639-.16.662a1.471,1.471,0,0,1-.667.161l-.209.012v.581H178.96V189.22H178.4Z" fill="#fff"/>
          <path id="Path_414" data-name="Path 414" d="M196.275,177.161h.222a1.224,1.224,0,0,1,.65.152c.046.028.194.17.194.831v9.787l-10.672-11.363h-3.076v.6l.232-.011c.779-.034,1.261.172,1.464.634a5.125,5.125,0,0,1,.345,2.039v9.918a2.469,2.469,0,0,1-.145,1.158c-.028.04-.165.172-.758.172h-.222v.593h3.261v-.563l-.189-.028a2.3,2.3,0,0,1-.665-.15.386.386,0,0,1-.132-.216,2.511,2.511,0,0,1-.069-.7V179.739l11.7,12.454v-13.91c0-.631.116-.844.185-.915a1.084,1.084,0,0,1,.744-.207l.215-.006v-.587h-3.281Z" fill="#fff"/>
          <path id="Path_415" data-name="Path 415" d="M216.755,176.06l-.05.152c-.083.249-.19.28-.225.291a2.959,2.959,0,0,1-.767.065h-9.73a2.021,2.021,0,0,1-.662-.057c-.017-.007-.107-.056-.242-.328l-.061-.123H204.4l.871,2.216h.6l-.085-.285a1.3,1.3,0,0,1-.071-.335c0-.051.008-.109.026-.116a2.251,2.251,0,0,1,.646-.05h3.443v12.53c0,.613-.1.8-.141.857s-.174.165-.776.205l-.207.014v.579h4.416v-.593H212.9a2.049,2.049,0,0,1-.619-.062.4.4,0,0,1-.208-.238,2.71,2.71,0,0,1-.106-.971V177.49h3.6a1.312,1.312,0,0,1,.44.049c.015.006.023.036.023.087A1.654,1.654,0,0,1,216,178l-.068.275h.584l.872-2.216Z" fill="#fff"/>
        </g>
      </g>
    </g>
    <path id="Path_416" data-name="Path 416" d="M182.428,119.457a.259.259,0,0,0-.38.1,20.593,20.593,0,0,1-2.39,3.577,18.755,18.755,0,0,0-.065-2.777c-1.537-21.879-22.132-38.251-46.006-36.573s-41.977,20.77-40.44,42.649a35.643,35.643,0,0,0,.434,3.575c-.549.293-1.091.6-1.621.932-.655.411-1.289.853-1.9,1.32-.292.222-.008.724.293.5,5.191-3.852,11.761-4.076,17.946-3.346,3.272.386,6.508,1.025,9.745,1.629,3.525.658,7.051,1.263,10.551,2.049,7.383,1.659,14.732,3.665,22.3,4.3a30.233,30.233,0,0,0,9.232-.449,32.241,32.241,0,0,0,8.285-3.166,35.288,35.288,0,0,0,13.1-12.1q.555-.889,1.04-1.821A.289.289,0,0,0,182.428,119.457Zm-24.419,13.454,0,.018a44.993,44.993,0,0,1-5.557.026c-7.587-.43-14.967-2.378-22.342-4.072a99.741,99.741,0,0,0-15.579-2.58c1.821-11.236,12.785-18.92,24.679-17.215C151.232,110.813,159.649,121.478,158.009,132.911Z" fill="#fff"/>
  </g>
</svg>
