<?xml version="1.0" encoding="utf-8"?>
<!-- Generator: Adobe Illustrator 25.0.1, SVG Export Plug-In . SVG Version: 6.00 Build 0)  -->
<svg version="1.1" id="Layer_1" xmlns="http://www.w3.org/2000/svg" xmlns:xlink="http://www.w3.org/1999/xlink" x="0px" y="0px"
	 viewBox="0 0 595.3 402.9" style="enable-background:new 0 0 595.3 402.9;" xml:space="preserve">
<style type="text/css">
	.st0{display:none;}
	.st1{display:inline;fill:#FAA819;}
	.st2{font-family:'FelixTitlingMT';}
	.st3{font-size:74.2496px;}
	.st4{letter-spacing:11;}
	.st5{display:inline;fill:none;stroke:#FAA81A;stroke-miterlimit:10;}
	.st6{display:inline;fill:#929497;}
	.st7{font-size:54.2039px;}
	.st8{letter-spacing:3;}
	.st9{display:inline;fill:none;stroke:#929497;stroke-miterlimit:10;}
	.st10{display:inline;fill:url(#SVGID_1_);}
	.st11{display:inline;fill:url(#SVGID_2_);}
	.st12{display:inline;fill:url(#SVGID_3_);}
	.st13{fill:url(#SVGID_4_);}
	.st14{fill:url(#SVGID_5_);}
	.st15{fill:#729ED9;}
	.st16{fill:url(#SVGID_6_);}
	.st17{fill:url(#SVGID_7_);}
	.st18{fill:url(#SVGID_8_);}
	.st19{fill:url(#SVGID_9_);}
	.st20{fill:url(#SVGID_10_);}
	.st21{fill:url(#SVGID_11_);}
</style>
<g id="Layer_1_1_" class="st0">
	<text transform="matrix(1 0 0 1 125.3433 188.0751)" class="st1 st2 st3 st4">sunset</text>
	<text transform="matrix(1 0 0 1 125.3433 188.0751)" class="st5 st2 st3 st4">sunset</text>
	<text transform="matrix(1 0 0 1 113.8553 265.4245)" class="st6 st2 st7 st8">Apartment</text>
	<text transform="matrix(1 0 0 1 113.8553 265.4245)" class="st9 st2 st7 st8">Apartment</text>
	
		<linearGradient id="SVGID_1_" gradientUnits="userSpaceOnUse" x1="86.4156" y1="361.2046" x2="77.4766" y2="259.45" gradientTransform="matrix(0.9975 -7.010715e-02 -6.424820e-02 -0.9142 230.0346 322.1251)">
		<stop  offset="0" style="stop-color:#FED007"/>
		<stop  offset="0.3278" style="stop-color:#FCC30F"/>
		<stop  offset="0.9321" style="stop-color:#F8A123"/>
		<stop  offset="1" style="stop-color:#F79D25"/>
	</linearGradient>
	<path class="st10" d="M388.6,49.9c0.3,3.9,0.3,4.6,0,8.4C375.5,71.5,355,80,337,80.8c-29.4,1.3-58.4-10.1-87.7-12.6
		c-18-1.5-37.1-0.9-54.3,4.1c-0.5-2.9-0.9-5.8-1.1-8.8c-3.5-49.3,37.3-92.3,91.1-96S385.1,0.6,388.6,49.9z"/>
	
		<linearGradient id="SVGID_2_" gradientUnits="userSpaceOnUse" x1="231.7649" y1="643.9734" x2="231.7649" y2="590.1855" gradientTransform="matrix(0.9899 0.142 0.142 -0.9899 -23.6525 631.6808)">
		<stop  offset="0" style="stop-color:#FCD991"/>
		<stop  offset="0.8902" style="stop-color:#F6921E"/>
	</linearGradient>
	<path class="st11" d="M340,78.2c-0.3,2-0.7,4-1.3,5.9c-8.3,3.3-18.2,3.8-27.3,2.2c-14.8-2.5-28.3-9.4-42.6-13.8
		c-8.8-2.7-18.3-4.5-27.4-3.8c0.1-1.5,0.2-3.1,0.4-4.6c3.7-25.7,28.6-43.5,55.7-39.6C324.7,28.4,343.7,52.4,340,78.2z"/>
	
		<linearGradient id="SVGID_3_" gradientUnits="userSpaceOnUse" x1="121.2147" y1="501.9245" x2="121.3482" y2="454.468" gradientTransform="matrix(1 0 0 -1 169.5964 481.5235)">
		<stop  offset="0" style="stop-color:#FED007"/>
		<stop  offset="0.2199" style="stop-color:#FDCA0B"/>
		<stop  offset="0.533" style="stop-color:#FBB716"/>
		<stop  offset="0.8501" style="stop-color:#F79D25"/>
	</linearGradient>
	<path class="st12" d="M395,47.9c-0.3-0.2-0.7-0.1-0.9,0.2c-5.9,11.3-16.3,19.4-27.9,24.2c-12.2,5-25.6,6.7-38.7,6
		c-17.1-1-33.7-5.4-50.3-9.2c-15-3.4-30.2-6.4-45.7-6.1c-14,0.3-28.3,3.2-40.2,10.7c-1.5,0.9-2.9,1.9-4.3,3c-0.7,0.5,0,1.6,0.7,1.1
		c11.7-8.7,26.5-9.2,40.4-7.5c7.4,0.9,14.7,2.3,21.9,3.7c7.9,1.5,15.9,2.8,23.8,4.6c16.6,3.7,33.2,8.3,50.2,9.7
		c7,0.6,13.9,0.5,20.8-1c6.5-1.5,12.8-3.9,18.7-7.1c11.8-6.4,22.4-15.8,29.5-27.3c0.8-1.3,1.6-2.7,2.3-4.1
		C395.5,48.4,395.3,48,395,47.9z"/>
</g>
<g id="Layer_4" class="st0">
</g>
<g id="Layer_1_copy">
	<g>
		
			<linearGradient id="SVGID_4_" gradientUnits="userSpaceOnUse" x1="80.202" y1="242.9578" x2="71.263" y2="141.2032" gradientTransform="matrix(0.9975 -7.010715e-02 -6.424820e-02 -0.9142 230.0346 322.1251)">
			<stop  offset="0" style="stop-color:#FED007"/>
			<stop  offset="0.3278" style="stop-color:#FCC30F"/>
			<stop  offset="0.9321" style="stop-color:#F8A123"/>
			<stop  offset="1" style="stop-color:#F79D25"/>
		</linearGradient>
		<path class="st13" d="M390,158.4c0.3,3.9,0.3,4.6,0,8.4c-13.1,13.1-33.6,21.7-51.6,22.5c-29.4,1.3-58.4-10.1-87.7-12.6
			c-18-1.5-37.1-0.9-54.3,4.1c-0.5-2.9-0.9-5.8-1.1-8.8c-3.5-49.3,37.3-92.3,91.1-96C340.1,72.3,386.5,109.2,390,158.4z"/>
		
			<linearGradient id="SVGID_5_" gradientUnits="userSpaceOnUse" x1="248.5566" y1="536.7316" x2="248.5566" y2="482.9437" gradientTransform="matrix(0.9899 0.142 0.142 -0.9899 -23.6525 631.6808)">
			<stop  offset="0" style="stop-color:#FEE57F"/>
			<stop  offset="0.8902" style="stop-color:#F27322"/>
		</linearGradient>
		<path class="st14" d="M341.4,186.7c-0.3,2-0.7,4-1.3,5.9c-8.3,3.3-18.2,3.8-27.3,2.2c-14.8-2.5-28.3-9.4-42.6-13.8
			c-8.8-2.7-18.3-4.5-27.4-3.8c0.1-1.5,0.2-3.1,0.4-4.6c3.7-25.7,28.6-43.5,55.7-39.6C326.1,136.9,345,160.9,341.4,186.7z"/>
		<path class="st15" d="M396.3,156.4c-0.3-0.2-0.7-0.1-0.9,0.2c-5.9,11.3-16.3,19.4-27.9,24.2c-12.2,5-25.6,6.7-38.7,6
			c-17.1-1-33.7-5.4-50.3-9.2c-15-3.4-30.2-6.4-45.7-6.1c-14,0.3-28.3,3.2-40.2,10.7c-1.5,0.9-2.9,1.9-4.3,3c-0.7,0.5,0,1.6,0.7,1.1
			c11.7-8.7,26.5-9.2,40.4-7.5c7.4,0.9,14.7,2.3,21.9,3.7c7.9,1.5,15.9,2.8,23.8,4.6c16.6,3.7,33.2,8.3,50.2,9.7
			c7,0.6,13.9,0.5,20.8-1c6.5-1.5,12.8-3.9,18.7-7.1c11.8-6.4,22.4-15.8,29.5-27.3c0.8-1.3,1.6-2.7,2.3-4.1
			C396.8,156.9,396.6,156.6,396.3,156.4z"/>
		
			<linearGradient id="SVGID_6_" gradientUnits="userSpaceOnUse" x1="135.25" y1="170.8471" x2="135.25" y2="139.7429" gradientTransform="matrix(1 0 0 -1 0 396.6456)">
			<stop  offset="0" style="stop-color:#FED007"/>
			<stop  offset="1" style="stop-color:#F79D25"/>
		</linearGradient>
		<path class="st16" d="M140.1,245.5c-1.3-0.6-3.6-1.5-7-2.6c-2.2-0.9-3.1-1.6-3.4-2.1c-0.5-0.7-0.7-1.6-0.7-2.6
			c0-1.5,0.5-2.8,1.7-3.9c1.1-1.1,2.6-1.6,4.6-1.6c1.2,0,2.3,0.2,3.2,0.6s1.8,1,2.5,1.8c0.7,0.7,1.1,1.1,1.2,1.2
			c0,0.1,0.1,0.1,0.2,0.2c0.2,0.2,0.6,0.3,0.9,0.2h0.3c0.3-0.1,0.6-0.2,0.8-0.5s0.2-0.6,0.1-0.9l-1.6-4.1c-0.1-0.4-0.4-0.6-0.8-0.7
			c-0.2-0.1-0.6-0.2-2.3-0.5c-5-1-8.8-0.1-11.5,2.5c-2,1.9-3,4.4-3,7.2c0,1.6,0.4,3.1,1.2,4.6c0.8,1.5,1.8,2.6,2.9,3.4
			c1.1,0.7,2.9,1.5,5.6,2.4c2.4,0.8,4.1,1.5,4.9,2.1c0.8,0.5,1.4,1.1,1.8,1.8c0.4,0.6,0.6,1.4,0.6,2.3c0,1.6-0.6,2.9-1.8,4
			s-3.2,1.7-5.7,1.7c-2.8,0-4.9-0.5-6.1-1.6c-1.2-1-1.8-3-1.9-5.9c0-0.6-0.5-1.1-1.1-1.1h-0.3c-0.6,0-1.1,0.5-1.1,1.1v9.6
			c0,0.6,0.5,1.1,1.1,1.1h8.8c0.5,0,1.5-0.1,3-0.3c1.6-0.2,2.7-0.4,3.5-0.8s1.5-0.9,2.3-1.6c0.7-0.7,1.3-1.4,1.8-2.3
			c0.5-0.8,0.9-1.7,1.1-2.6c0.2-0.9,0.3-1.9,0.3-2.8c0-2.4-0.7-4.4-2-6C142.8,247.2,141.4,246.1,140.1,245.5z"/>
		
			<linearGradient id="SVGID_7_" gradientUnits="userSpaceOnUse" x1="200" y1="170.8471" x2="200" y2="139.7429" gradientTransform="matrix(1 0 0 -1 0 396.6456)">
			<stop  offset="0" style="stop-color:#FED007"/>
			<stop  offset="1" style="stop-color:#F79D25"/>
		</linearGradient>
		<path class="st17" d="M215.2,229.9h-8.7c-0.6,0-1.1,0.5-1.1,1.1v0.3c0,0.6,0.5,1.1,1.1,1.1h0.3c0.4,0,0.7,0.1,0.8,0.2
			c0,0,0.3,0.5,0.3,2.8v21.9c-2.5,2.8-5.3,4.2-8.4,4.2c-2,0-3.8-0.7-5.3-2.2c-1.5-1.4-2.3-3.9-2.3-7.3v-18.1c0-1,0.2-1.2,0.2-1.2
			s0.3-0.2,1.3-0.2c0.6,0,1.1-0.5,1.1-1.1V231c0-0.6-0.5-1.1-1.1-1.1h-8.8c-0.6,0-1.1,0.5-1.1,1.1v0.3c0,0.6,0.5,1.1,1.1,1.1
			c0.9,0,1.2,0.1,1.2,0.1c0,0.1,0.2,0.4,0.2,1.6v19.8c0,3.5,1.1,6.4,3.2,8.4c2.1,2,5,3.1,8.5,3.1c3.9,0,7.3-1.3,10.3-3.8v2.6
			c0,0.6,0.5,1.1,1.1,1.1h6.3c0.6,0,1.1-0.5,1.1-1.1v-0.3c0-0.6-0.5-1.1-1.1-1.1c-0.8,0-1-0.1-1.1-0.1c-0.2-0.1-0.2-0.2-0.2-0.3
			c0-0.1-0.1-0.4-0.1-1.8v-26.9c0-0.7,0.1-0.9,0.1-0.9c0.1,0,0.4-0.2,1.3-0.2c0.6,0,1-0.5,1-1.1V231
			C216.3,230.4,215.8,229.9,215.2,229.9z"/>
		
			<linearGradient id="SVGID_8_" gradientUnits="userSpaceOnUse" x1="271.5564" y1="170.8471" x2="271.5564" y2="139.7429" gradientTransform="matrix(1 0 0 -1 0 396.6456)">
			<stop  offset="0" style="stop-color:#FED007"/>
			<stop  offset="1" style="stop-color:#F79D25"/>
		</linearGradient>
		<path class="st18" d="M289.1,229.9h-6.4c-0.6,0-1.1,0.5-1.1,1.1v0.3c0,0.6,0.5,1.1,1.1,1.1c0.5,0,0.9,0.1,1.1,0.2
			c0,0,0.2,0.3,0.2,1.4v20.6l-22.9-24.4c-0.2-0.2-0.5-0.3-0.8-0.3h-6.2c-0.6,0-1.1,0.5-1.1,1.1v0.3c0,0.3,0.1,0.6,0.3,0.8
			c0.2,0.2,0.5,0.3,0.8,0.3c2.2-0.1,2.6,0.8,2.8,1.1c0.5,1.1,0.7,2.6,0.7,4.4v22.3c0,1.8-0.2,2.2-0.2,2.2l0,0c0,0-0.3,0.2-1.3,0.2
			c-0.6,0-1.1,0.5-1.1,1.1v0.3c0,0.6,0.5,1.1,1.1,1.1h6.3c0.6,0,1.1-0.5,1.1-1.1v-0.3c0-0.5-0.4-1-0.9-1.1c-1-0.1-1.2-0.3-1.3-0.2
			c0,0,0-0.1-0.1-0.2c0-0.1-0.1-0.5-0.1-1.4v-21.7l24.5,26.1c0.2,0.2,0.5,0.3,0.8,0.3c0.1,0,0.3,0,0.4-0.1c0.4-0.2,0.7-0.6,0.7-1
			v-30.1c0-1.4,0.3-1.7,0.3-1.7s0.3-0.3,1.3-0.3c0.6,0,1-0.5,1-1.1V231C290.2,230.4,289.7,229.9,289.1,229.9z"/>
		
			<linearGradient id="SVGID_9_" gradientUnits="userSpaceOnUse" x1="338.35" y1="164.6142" x2="338.35" y2="133.51" gradientTransform="matrix(1 0 0 -1 0 396.6456)">
			<stop  offset="0" style="stop-color:#FED007"/>
			<stop  offset="1" style="stop-color:#F79D25"/>
		</linearGradient>
		<path class="st19" d="M343.5,245.5c-1.3-0.6-3.6-1.5-7-2.6c-2.2-0.9-3.1-1.6-3.4-2.1c-0.5-0.7-0.7-1.6-0.7-2.6
			c0-1.5,0.5-2.8,1.7-3.9c1.1-1.1,2.6-1.6,4.6-1.6c1.2,0,2.3,0.2,3.2,0.6c0.9,0.4,1.8,1,2.5,1.8c0.7,0.7,1.1,1.1,1.2,1.2
			c0,0.1,0.1,0.1,0.2,0.2c0.2,0.2,0.5,0.3,0.9,0.2h0.3c0.3-0.1,0.6-0.2,0.8-0.5c0.2-0.3,0.2-0.6,0.1-0.9L346,231
			c-0.1-0.4-0.4-0.6-0.8-0.7c-0.2-0.1-0.6-0.2-2.3-0.5c-5-1-8.8-0.1-11.5,2.5c-2,1.9-3,4.3-3,7.2c0,1.6,0.4,3.1,1.2,4.6
			c0.8,1.5,1.8,2.6,2.9,3.4c1.1,0.7,2.9,1.5,5.6,2.4c2.4,0.8,4.1,1.5,4.9,2.1c0.8,0.5,1.4,1.1,1.8,1.8c0.4,0.6,0.6,1.4,0.6,2.3
			c0,1.6-0.6,2.9-1.8,4c-1.2,1.1-3.2,1.7-5.7,1.7c-2.8,0-4.9-0.5-6.1-1.6c-1.2-1-1.8-3-1.9-5.9c0-0.6-0.5-1.1-1.1-1.1h-0.3
			c-0.6,0-1.1,0.5-1.1,1.1v9.6c0,0.6,0.5,1.1,1.1,1.1h8.8c0.5,0,1.5-0.1,3-0.3c1.6-0.2,2.7-0.4,3.5-0.8s1.5-0.9,2.3-1.6
			c0.7-0.7,1.3-1.4,1.8-2.3c0.5-0.8,0.9-1.7,1.1-2.6s0.3-1.8,0.3-2.8c0-2.4-0.7-4.4-2-6C346.2,247.2,344.8,246.1,343.5,245.5z"/>
		
			<linearGradient id="SVGID_10_" gradientUnits="userSpaceOnUse" x1="399.2" y1="170.8471" x2="399.2" y2="139.7429" gradientTransform="matrix(1 0 0 -1 0 396.6456)">
			<stop  offset="0" style="stop-color:#FED007"/>
			<stop  offset="1" style="stop-color:#F79D25"/>
		</linearGradient>
		<path class="st20" d="M410.5,258.4h-0.3c-0.5,0-1,0.4-1.1,0.9c-0.2,1.6-0.5,1.9-0.5,1.9c-0.2,0.2-0.5,0.4-0.8,0.5
			c-0.2,0.1-1,0.2-3.3,0.2h-5.8c-1.4,0-2.2-0.1-2.5-0.2c-0.2-0.1-0.5-0.2-0.7-0.7c-0.2-0.4-0.3-1.2-0.3-2.9V249h9.3
			c0.7,0,0.9,0.1,1,0.1c0,0,0,0.1,0,0.2c0.1,0.5,0.5,0.9,1.1,0.9h0.3c0.6,0,1.1-0.5,1.1-1.1V246c0-0.6-0.5-1.1-1.1-1.1h-0.3
			c-0.6,0-1,0.5-1.1,1c-0.1,0-0.5,0.1-1.3,0.1h-9v-12.7h9.8c1.2,0,1.5,0.1,1.5,0.1c0.1,0.1,0.3,0.5,0.9,2.5c0.1,0.5,0.5,0.8,1,0.8
			h0.3c0.6,0,1.1-0.5,1.1-1.1V231c0-0.6-0.5-1.1-1.1-1.1h-20.8c-0.6,0-1.1,0.5-1.1,1.1v0.4c0,0.6,0.5,1.1,1.1,1.1c0.8,0,1,0.1,1,0.1
			c0.1,0.2,0.2,0.7,0.2,2.1v26.7c0,0.8-0.1,1-0.1,1c-0.1,0.1-0.5,0.2-1.2,0.3c-0.6,0-1,0.5-1,1.1v0.3c0,0.6,0.5,1.1,1.1,1.1h22.6
			c0.6,0,1.1-0.5,1.1-1.1v-4.5C411.5,258.9,411.1,258.4,410.5,258.4z"/>
		
			<linearGradient id="SVGID_11_" gradientUnits="userSpaceOnUse" x1="461.65" y1="170.8471" x2="461.65" y2="139.7429" gradientTransform="matrix(1 0 0 -1 0 396.6456)">
			<stop  offset="0" style="stop-color:#FED007"/>
			<stop  offset="1" style="stop-color:#F79D25"/>
		</linearGradient>
		<path class="st21" d="M476.4,229.3c-0.2-0.3-0.5-0.5-0.9-0.5h-0.3c-0.5,0-0.9,0.3-1,0.7c-0.1,0.2-0.1,0.3-0.1,0.3
			c-0.2,0-0.6,0.1-1.6,0.1h-21.9c-0.9,0-1.2-0.1-1.2-0.1s-0.1-0.1-0.3-0.5c-0.2-0.4-0.6-0.6-1-0.6h-0.3c-0.4,0-0.7,0.2-0.9,0.5
			c-0.2,0.3-0.2,0.7-0.1,1l1.6,4c0.2,0.4,0.6,0.7,1,0.7h0.3c0.3,0,0.7-0.2,0.9-0.4c0.2-0.3,0.3-0.6,0.2-0.9c0-0.2-0.1-0.3-0.1-0.4
			c0.2,0,0.5,0,0.9,0h7.2v27.6c0,1.2-0.2,1.5-0.2,1.5l0,0c0,0-0.3,0.2-1.4,0.3c-0.6,0-1,0.5-1,1.1v0.3c0,0.6,0.5,1.1,1.1,1.1h8.9
			c0.6,0,1.1-0.5,1.1-1.1v-0.3c0-0.6-0.5-1.1-1.1-1.1c-0.8,0-1.1-0.1-1.2-0.1c0,0-0.1,0-0.1-0.2c0-0.1-0.2-0.5-0.2-2v-27.2h7.5
			c0.2,0,0.4,0,0.5,0c0,0.2,0,0.4-0.1,0.4c-0.1,0.3,0,0.7,0.2,0.9s0.5,0.4,0.8,0.4h0.3c0.4,0,0.8-0.3,1-0.7l1.6-4
			C476.6,229.9,476.6,229.5,476.4,229.3z"/>
		<g>
			<g>
				<path class="st15" d="M148.1,316c-0.7-1.6-0.8-1.9-0.9-1.9l-11.9-29.7H134l-12.1,30.5c-0.7,1.6-1.1,2.1-1.3,2.3
					c-0.4,0.3-0.8,0.4-1.4,0.4h-0.5v1.3h5.9v-1.3h-0.5c-0.6,0-0.6-0.2-0.6-0.2s0-0.3,0.5-1.5l4.9-12.1h9l4.6,11.4v0.1v0.1
					c0.1,0.2,0.1,0.3,0.2,0.4c0.4,0.9,0.4,1.4,0.4,1.5c0,0.2,0,0.3-0.6,0.3H142v1.3h8.7v-1.3h-0.5
					C149.3,317.6,148.6,317.1,148.1,316z M129.6,301.8l3.7-9.4l3.7,9.4H129.6z"/>
				<path class="st15" d="M180,286.1c-1.6-0.8-4.1-1.2-7.5-1.2h-9.9v1.3h0.5c1,0,1.4,0.2,1.5,0.4c0.1,0.2,0.3,0.6,0.3,2V316
					c0,1.1-0.5,1.6-1.8,1.6h-0.5v1.3h9.7v-1.3h-0.5c-1.1,0-1.6-0.2-1.7-0.3c0,0-0.4-0.4-0.4-2.5V287h1.9c2.3,0,4,0.3,5,0.9
					c1.1,0.6,1.9,1.5,2.5,2.7c0.6,1.2,0.9,2.6,0.9,4.1c0,2-0.6,3.5-1.8,4.7s-2.8,1.8-4.7,1.8H173v1.3h0.5c3.4,0,6.1-0.7,8.1-2.1
					c2.1-1.5,3.1-3.8,3.1-6.7c0-1.9-0.4-3.5-1.1-4.7C182.7,287.9,181.6,286.9,180,286.1z"/>
				<path class="st15" d="M221.4,316c-0.7-1.6-0.8-1.9-0.9-1.9l-11.9-29.7h-1.3l-12.1,30.5c-0.7,1.6-1.1,2.1-1.3,2.3
					c-0.4,0.3-0.8,0.4-1.4,0.4H192v1.3h5.9v-1.3h-0.5c-0.6,0-0.6-0.2-0.6-0.2s0-0.3,0.5-1.5l4.9-12.1h9l4.6,11.4v0.1v0.1
					c0.1,0.2,0.1,0.3,0.2,0.4c0.4,0.9,0.4,1.4,0.4,1.5c0,0.2,0,0.3-0.6,0.3h-0.5v1.3h8.7v-1.3h-0.5C222.7,317.6,222,317.1,221.4,316
					z M203,301.8l3.7-9.4l3.7,9.4H203z"/>
				<path class="st15" d="M270.2,315.7c-1.3,0.8-2.5,1.2-3.6,1.2c-1,0-2.1-0.3-3.2-0.9c-1.1-0.6-2.8-2.4-4.9-5.4c-2.2-3-3.5-5-4-5.9
					l-2-3.1c1.7-1,3-2.3,4-3.7c1.1-1.6,1.6-3.3,1.6-5.1c0-1.5-0.3-2.9-0.9-4c-0.6-1.1-1.5-2-2.7-2.6s-2.3-1-3.4-1.1
					c-1.1-0.1-2.8-0.2-5.2-0.2H236v1.3h0.5c0.6,0,1.4,0.1,1.6,0.5c0.2,0.5,0.3,1.1,0.3,1.9v26.2c0,1.5-0.2,2-0.3,2.2
					c-0.1,0.1-0.4,0.4-1.6,0.4H236v1.3h9.5v-1.3H245c-0.8,0-1.3-0.1-1.5-0.4c-0.1-0.2-0.3-0.8-0.3-1.9V303h2.2l2.7-0.1l3.1,4.8v0.1
					l0.1,0.1c3.5,5.1,5.8,8.2,7.2,9.4c1.5,1.2,3.2,1.8,5.2,1.8c3,0,5.4-0.8,7.3-2.3l0.3-0.2l-0.4-1.4L270.2,315.7z M243.1,286.8h2.2
					c3.1,0,5.2,0.8,6.4,2.5s1.9,3.6,1.9,5.5c0,2-0.6,3.5-1.8,4.7s-3.1,1.8-5.7,1.8h-3L243.1,286.8L243.1,286.8z"/>
				<path class="st15" d="M301,284.1c-0.2,0.6-0.4,0.6-0.5,0.7c-0.2,0.1-0.7,0.1-1.7,0.1h-21.9c-1.1,0-1.4-0.1-1.5-0.1
					c0,0-0.2-0.1-0.5-0.7l-0.1-0.3h-1.4l2,5h1.3l-0.2-0.6c-0.1-0.5-0.2-0.7-0.2-0.8c0-0.1,0-0.2,0.1-0.3c0.1,0,0.4-0.1,1.5-0.1h7.8
					v28.2c0,1.4-0.2,1.8-0.3,1.9c-0.1,0.1-0.4,0.4-1.7,0.5h-0.5v1.3h9.9v-1.3h-0.5c-0.8,0-1.2-0.1-1.4-0.1c-0.2-0.1-0.3-0.2-0.5-0.5
					c-0.1-0.2-0.2-0.8-0.2-2.2V287h8.1c0.6,0,0.9,0.1,1,0.1c0,0,0.1,0.1,0.1,0.2c0,0.4,0,0.7-0.1,0.8l-0.2,0.6h1.3l2-5h-1.4
					L301,284.1z"/>
				<path class="st15" d="M351.7,317.1c-0.1-0.2-0.4-0.7-0.6-2.2l-3.5-25c-0.1-0.6-0.1-1.1-0.1-1.5c0-1.5,0.7-2.2,2.2-2.3h0.5v-1.3
					h-6L332.9,311l-11.3-26.2h-7.1v1.3h0.5c0.5,0,1,0.1,1.6,0.4c0.3,0.2,0.9,0.7,1.5,2.3l-3.8,26.5c-0.1,0.5-0.1,0.9-0.3,1.3
					c-0.1,0.3-0.2,0.5-0.4,0.7c0,0-0.2,0.2-1.1,0.2H312v1.3h6v-1.3h-0.5c-0.9,0-1-0.4-1-0.8c0-0.4,0-0.8,0.1-1.2l3.1-22.6l11.3,25.9
					h0.9l11.3-26l3.1,22.5c0.1,0.8,0.1,1.1,0.1,1.2c0,0.3-0.1,0.6-0.2,0.7c-0.1,0.1-0.4,0.2-0.8,0.2h-0.5v1.4h8.4v-1.3h-0.5
					C352,317.5,351.8,317.3,351.7,317.1z"/>
				<path class="st15" d="M387.2,313.8c-0.2,1.5-0.5,2-0.7,2.2c-0.3,0.3-0.6,0.5-1.1,0.6c-0.3,0.1-1.2,0.2-3.4,0.2h-5.8
					c-1.2,0-2.1-0.1-2.7-0.2c-0.5-0.1-0.8-0.5-1-1c-0.3-0.6-0.4-1.7-0.4-3.1v-9.7h9.9c0.9,0,1.2,0.1,1.3,0.2
					c0.1,0.1,0.2,0.2,0.3,0.5l0.1,0.4h1.3v-4.1h-1.3v0.5c0,0.3-0.1,0.4-0.2,0.4c0,0-0.3,0.2-1.6,0.2h-9.6V287h10.4
					c1.5,0,1.9,0.3,1.9,0.3c0.1,0.1,0.4,0.5,1,2.8l0.1,0.4h1.2v-5.6h-21.8v1.4h0.5c0.9,0,1.4,0.2,1.6,0.4c0.1,0.3,0.3,0.9,0.3,2.4
					v26.7c0,1.2-0.3,1.4-0.4,1.5c-0.3,0.2-0.8,0.3-1.5,0.4h-0.5v1.3h23.6v-5.5h-1.3L387.2,313.8z"/>
				<path class="st15" d="M427.5,286.2h0.5c0.6,0,1.1,0.1,1.5,0.3c0.1,0.1,0.4,0.4,0.4,1.9v22l-24-25.6H399v1.4h0.5
					c1.8-0.1,2.8,0.4,3.3,1.4c0.5,1.2,0.8,2.7,0.8,4.6v22.3c0,1.9-0.2,2.5-0.3,2.6c-0.1,0.1-0.4,0.4-1.7,0.4H401v1.3h7.3v-1.3
					l-0.4-0.1c-1.2-0.2-1.4-0.3-1.5-0.3c-0.1-0.1-0.2-0.2-0.3-0.5c-0.1-0.3-0.2-0.9-0.2-1.6v-23l26.3,28v-31.3
					c0-1.4,0.3-1.9,0.4-2.1c0.2-0.2,0.6-0.4,1.7-0.5h0.5v-1.3h-7.4v1.4H427.5z"/>
				<path class="st15" d="M473.6,283.8l-0.1,0.3c-0.2,0.6-0.4,0.6-0.5,0.7c-0.2,0.1-0.7,0.1-1.7,0.1h-21.9c-1.1,0-1.4-0.1-1.5-0.1
					c0,0-0.2-0.1-0.5-0.7l-0.1-0.3h-1.4l2,5h1.3l-0.2-0.6c-0.1-0.5-0.2-0.7-0.2-0.8c0-0.1,0-0.2,0.1-0.3c0.1,0,0.4-0.1,1.5-0.1h7.8
					v28.2c0,1.4-0.2,1.8-0.3,1.9c-0.1,0.1-0.4,0.4-1.7,0.5h-0.5v1.3h9.9v-1.3h-0.5c-0.8,0-1.2-0.1-1.4-0.1c-0.2-0.1-0.3-0.2-0.5-0.5
					c-0.1-0.2-0.2-0.8-0.2-2.2V287h8.1c0.6,0,0.9,0.1,1,0.1c0,0,0.1,0.1,0.1,0.2c0,0.4,0,0.6-0.1,0.8l-0.2,0.6h1.3l2-5L473.6,283.8
					L473.6,283.8z"/>
			</g>
		</g>
	</g>
</g>
<g id="Layer_5">
</g>
</svg>
